<?xml version="1.0" standalone="no"?>
<!DOCTYPE svg PUBLIC "-//W3C//DTD SVG 1.1//EN" "http://www.w3.org/Graphics/SVG/1.1/DTD/svg11.dtd" >
<svg xmlns="http://www.w3.org/2000/svg">
<metadata></metadata>
<defs>
<font id="bocklinregular" horiz-adv-x="1188" >
<font-face units-per-em="2048" ascent="1637" descent="-411" />
<missing-glyph horiz-adv-x="759" />
<glyph horiz-adv-x="2048" />
<glyph horiz-adv-x="2048" />
<glyph unicode="&#xd;" horiz-adv-x="759" />
<glyph unicode=" "  horiz-adv-x="759" />
<glyph unicode="&#x09;" horiz-adv-x="759" />
<glyph unicode="&#xa0;" horiz-adv-x="759" />
<glyph unicode="!" horiz-adv-x="744" d="M53 1207q68 51 121 51q27 0 67.5 -7t67.5 -7q29 0 69.5 7t67.5 7q61 0 125 -51q-29 -43 -70 -100q-59 -63 -74.5 -157.5t-25.5 -184.5q-10 -141 -22 -284q-16 -153 -70 -154q-53 0 -70 154q-12 143 -22 284q-10 90 -21 182q-18 96 -77 160q-20 33 -66 100zM225 100 q0 -110 84 -110q39 0 62.5 33.5t23.5 76.5q0 113 -86 113q-84 0 -84 -113z" />
<glyph unicode="&#x22;" horiz-adv-x="726" d="M145 1154q0 -90 88 -90q6 0 15 -19q14 -26 14 -163q0 -4 2 -4q12 0 41 65q31 78 31 150q0 29 -7 55q-8 39 -36.5 66.5t-63.5 27.5t-59.5 -26.5t-24.5 -61.5zM370 1154q0 -90 88 -90q6 0 15 -19q14 -26 14 -163q0 -4 2 -4q12 0 41 65q31 78 31 150q0 29 -7 55 q-8 39 -36.5 66.5t-63.5 27.5t-59.5 -26.5t-24.5 -61.5z" />
<glyph unicode="#" horiz-adv-x="1014" d="M0 438v110h190l41 268h-141v111h156l53 352h139l-53 -352h257l52 352h131l-52 -352h166v-111h-184l-41 -268h137v-110h-155l-52 -348h-126l51 348h-260l-51 -348h-137l51 348h-172zM327 548h258l39 268h-256z" />
<glyph unicode="$" horiz-adv-x="1151" d="M162 385q2 -88 71.5 -144.5t163.5 -56.5q45 0 194 10v-153h84v151q76 -8 152 -8q100 0 162.5 72.5t62.5 183.5q0 252 -225 344q-44 18 -152 51v165q-4 0 100 -8q2 0 35 -45t100 -49q49 -4 84 8q-10 14 -10 41q0 4 14.5 23.5t14.5 29.5q0 45 -35 66q-16 10 -117 29 q-113 18 -186 20v115h-84v-115q-379 0 -378 -143q0 -82 63 -133q41 -33 150 -74q119 -47 165 -78q2 -12 0 -292q-68 4 -112 29q-51 31 -51 75.5t-4 59.5q-8 29 -43 45q-68 33 -107 32q-29 0 -51 -12q39 -31 39 -55q0 -37 -50 -90t-50 -94zM473 951q0 37 49 41q8 0 30 2h39 v-133q-118 39 -118 90zM675 399v241q100 -59 100 -143q0 -80 -100 -98z" />
<glyph unicode="%" horiz-adv-x="1317" d="M121 861q0 -100 51 -200t106 -100q12 0 41 5t45 5q18 0 46 -5t38 -5q55 0 104.5 100t49.5 200q0 162 -70 232q-4 4 -25 20q0 33 -8 45q-16 27 -37 35q-26 10 -98 10q-119 0 -184 -98q-59 -90 -59 -244zM217 927q0 72 37 125q42 63 110 63q59 0 78 -20q25 -27 0 -31 q-20 -4 -27 -29q-8 -31 21 -30q8 0 14 4q31 18 41 2q20 -33 20 -82q0 -82 -39.5 -139.5t-107.5 -57.5q-70 0 -110 60q-37 53 -37 135zM241 0l739 1209h106l-738 -1209h-107zM722 299q0 -100 51.5 -200.5t106.5 -100.5q12 0 39.5 5t44.5 5q18 0 46.5 -5t39.5 -5q55 0 104 100 t49 201q0 160 -70 231q-8 6 -26 20q0 35 -6 45q-16 27 -37 35q-26 10 -100 10q-119 0 -182 -98q-59 -90 -60 -243zM818 364q0 70 37 125q41 63 109 63q61 0 79 -20q25 -27 0 -31q-20 -4 -28 -28q-6 -31 22 -31q8 0 15 4q31 18 41 2q20 -33 20 -82q0 -82 -40 -139t-109 -57 q-68 0 -109 59q-37 53 -37 135z" />
<glyph unicode="&#x26;" horiz-adv-x="1411" d="M113 243q0 -119 74.5 -194.5t186.5 -75.5q49 0 139.5 13.5t147.5 13.5q55 0 141 -13.5t141 -13.5q88 0 158 45q78 53 77 133q0 96 -34 180q-18 41 -90 168q-29 49 -29 45q0 4 4 4q10 0 16 -4q72 -14 80 -14q55 0 94 36t39 89q0 106 -55 151q-29 -29 -61 -37 q-29 -8 -71 21.5t-68 29.5q-68 0 -118 -44t-50 -109q0 -51 56 -134t56 -142q0 -37 -20.5 -70t-54.5 -33q-37 0 -86 8.5t-80 8.5q-25 0 -67 -8.5t-66 -8.5q-108 0 -147 109q-6 18 -7 39q0 41 35 88l74 82l47 55l-88 119l-80 -78q-295 -286 -294 -459zM303 1121q0 -57 33 -116 q14 -27 75 -109l203 -272q23 -29 20 -43q-2 -12 -14 -20q-23 -12 -27 -17q-31 -31 -30 -82q0 -57 49 -96t104 -28q-27 23 -10 51q6 10 23.5 13t23.5 9q37 29 51 98q4 16 4 33q0 51 -40 102.5t-81 100.5l-149 184q-51 63 -55 131q-2 33 21.5 55.5t56.5 22.5h143q74 0 73 -43 q0 -25 -38.5 -65t-77.5 -77l-72 -71l88 -109l35 35q104 98 211 197q113 106 112 147q0 47 -38.5 79.5t-90.5 32.5h-480q-51 0 -87 -44t-36 -99z" />
<glyph unicode="'" horiz-adv-x="466" d="M145 1154q0 -90 88 -90q6 0 15 -19q14 -26 14 -163q0 -4 2 -4q12 0 41 65q31 78 31 150q0 29 -7 55q-8 39 -36.5 66.5t-63.5 27.5t-59.5 -26.5t-24.5 -61.5z" />
<glyph unicode="(" horiz-adv-x="476" d="M49 626q0 196 55.5 336.5t194.5 291.5q35 37 59 37q29 0 29 -29q0 -16 -27 -55q-88 -127 -117 -301q-16 -100 -16 -280q0 -362 133 -579q23 -37 23 -53q0 -31 -31 -31q-18 0 -53 37q-139 151 -194.5 290.5t-55.5 335.5z" />
<glyph unicode=")" horiz-adv-x="595" d="M151 1262q0 -18 25 -55q86 -127 117 -301q16 -102 16 -280q0 -362 -133 -579q-23 -37 -23 -53q0 -33 31 -33q18 0 53 39q139 153 195.5 292.5t56.5 333.5q0 196 -56.5 335.5t-195.5 292.5q-35 37 -57 37q-29 0 -29 -29z" />
<glyph unicode="*" horiz-adv-x="947" d="M115 473l233 131l-233 139q8 16 28 53q10 16 33 43l231 -135v243q35 4 55 4q18 0 52 -4v-249l253 141q12 -10 37 -41q12 -16 27 -55l-246 -141l235 -140q-4 -16 -20 -53q-12 -18 -41 -45l-245 143v-249q-35 -6 -54 -6q-18 0 -53 6v239l-231 -133q-14 16 -41 53 q-10 18 -20 56z" />
<glyph unicode="+" horiz-adv-x="595" d="M92 387q0 31 10 55h144v147q35 10 57 10q23 0 53 -10v-147h147q10 -27 11 -55q0 -33 -11 -54h-147v-147q-31 -10 -53 -10q-23 0 -57 10v147h-144q-10 20 -10 54z" />
<glyph unicode="," horiz-adv-x="609" d="M2 68q-6 -86 76 -105q27 -6 6 -51q-16 -35 -33 -35q-8 0 -14 4q8 -8 31 -16q43 -2 76.5 53t27.5 115q-14 129 -88 127q-76 -10 -82 -92z" />
<glyph unicode="-" horiz-adv-x="621" d="M92 387q0 30 10 55h401q10 -27 11 -55q0 -33 -11 -54h-401q-10 20 -10 54z" />
<glyph unicode="." horiz-adv-x="759" d="M0 92q0 -41 26.5 -70.5t73.5 -29.5t74 29.5t27 70.5t-27 70.5t-74 29.5t-73.5 -29.5t-26.5 -70.5z" />
<glyph unicode="/" horiz-adv-x="982" d="M131 -90l583 1232q35 10 55 10q25 0 56 -10l-584 -1232q-23 -10 -55 -10q-30 0 -55 10z" />
<glyph unicode="0" horiz-adv-x="1172" d="M119 542q0 -192 88 -372q92 -186 202 -186q23 0 79 11t91 11t90 -11t78 -11q110 -2 202 186q90 180 90 372q0 307 -122 430q-25 25 -52 41q0 -4 2 16q2 16 0 31q-4 23 -18 43q-33 51 -72 65q-53 21 -198 21q-227 0 -348 -178q-113 -170 -112 -469zM284 671q0 147 74 278 q88 152 221 152q119 0 158 -41q27 -27 26 -43q0 -14 -26 -23q-47 -14 -60 -55q-8 -25 9.5 -45t39.5 -20q10 0 35 15t43 15q20 0 31 -16q37 -55 37 -213q0 -174 -70 -299q-80 -143 -223 -143t-225 141q-70 125 -70 297z" />
<glyph unicode="1" horiz-adv-x="795" d="M86 933q0 -65 90 -66q45 0 85 22.5t79 47.5l51 31v-864q-14 -4 -51 -32q-16 -12 -37 -52q8 -12 17 -24t48 -12q27 0 68 8t67 8q27 0 68 -8t69 -8q39 0 49.5 13t16.5 23q-10 18 -35 48q-16 14 -55 36v1058q0 51 -41 51q-15 0 -25 -8q-35 -27 -217 -151q-47 -31 -86.5 -36 t-80.5 -9q-80 -16 -80 -76z" />
<glyph unicode="2" horiz-adv-x="1307" d="M172 63q0 129 223 311q133 102 268 207q133 123 133 274q0 221 -201 225q-213 4 -216 -149q-2 -45 35.5 -73.5t86.5 -28.5q61 0 94 64.5t56 64.5q10 0 21.5 -4.5t29.5 -12.5q-16 -12 -21 -39q-2 -14 16.5 -30.5t18.5 -30.5q0 -98 -69.5 -162.5t-188.5 -64.5 q-123 0 -186 86q-57 76 -57 198q0 137 124.5 221t307.5 84q176 0 304 -90q141 -98 142 -254q0 -139 -207 -286q-198 -129 -397 -258q-23 -16 -23 -39q0 -35 33 -28q139 25 393 -5q37 -4 37 25q0 18 -8.5 47t-8.5 49q0 33 29 56.5t64 17.5q29 -4 47 -29q-10 -12 -20.5 -24.5 t-8.5 -38.5q4 -55 68.5 -133t64.5 -150q0 -84 -319 -83q-39 0 -99.5 10t-97.5 10q-39 0 -100 -10t-100 -10q-92 0 -176 22q-92 27 -92 61z" />
<glyph unicode="3" d="M74 227q0 -92 65.5 -169.5t144.5 -77.5q47 0 125 10t129 10q47 0 118.5 -10t118.5 -10q121 0 210 106t89 239q0 264 -460 381q-53 12 -53 31q0 16 53 32q123 33 245 64q155 53 156 149q0 80 -94 137q-80 47 -197 66q-170 27 -358 0q-196 -27 -194 -150q2 -57 45 -98 t102 -41q25 0 65 15.5t62 15.5q17 -1 37 -21q31 14 31 56q0 41 -53.5 68.5t-53.5 33.5q0 12 25 16q106 16 239 0q86 -10 86 -86q0 -78 -160 -149q-133 -51 -264 -102q-41 -18 -40 -37q0 -20 47 -31q180 -41 257 -76q160 -76 160 -200q0 -65 -35 -113q-37 -53 -92 -45 q-137 18 -260 0q-72 -10 -71 37q0 16 21 41l20 25q0 6 -27 26.5t-47 20.5q-68 2 -127 -43q-65 -51 -65 -121z" />
<glyph unicode="4" horiz-adv-x="1268" d="M119 364q0 -102 360 -102q110 0 173.5 15.5t104.5 15.5q43 0 110.5 -15.5t124.5 -15.5q70 0 121 48t49 116q-2 63 -84 112q-74 41 -116 31q27 -25 26 -51q0 -70 -51 -70q-37 0 -92 14.5t-88 16.5q-61 4 -149 -17q-96 -23 -152 -22q-80 0 -80 65q0 25 13 54 q113 264 180 470q14 45 41 45q35 0 34 -45v-546q59 14 113 10q68 -4 113 -22v568l51 45q37 33 37 52q0 43 -58 51q-198 31 -419 0q-49 -6 -76 -45q-10 -14 -10 -29q0 -20 34.5 -61t41.5 -70q6 -39 -105 -205q-172 -256 -202 -306q-45 -78 -45 -107zM518 61q49 -78 104 -77 q27 0 67.5 8t67.5 8t67.5 -8t67.5 -8q41 0 72 30q2 2 34 47q-14 45 -49 74q-43 35 -79 47v76q-45 18 -113 18q-49 0 -113 -22v-72q-31 -10 -79 -47q-31 -23 -47 -74z" />
<glyph unicode="5" horiz-adv-x="1203" d="M113 227q-10 -92 55 -164.5t157 -72.5q35 0 97.5 8t101.5 8q45 0 111.5 -8t109.5 -8q153 0 245 143q84 131 76 303q-8 180 -162 292q-141 104 -341 111q-104 4 -197 -31q-8 20 -8 53q0 55 34 91t60 36q49 0 130 -23.5t132 -23.5q127 0 229 160q-84 84 -149 84 q-47 0 -125 -19.5t-129 -19.5q-53 0 -134 19.5t-120 19.5q-43 0 -76.5 -22.5t-33.5 -59.5q0 -45 41 -107q47 -70 55 -108q2 -27 10 -84q-18 -8 -39 -27q-72 -61 -77 -151q-2 -51 92 -57q78 -4 118 108q4 16 9 29l122 8q70 4 140 -31q153 -78 153 -210q0 -88 -27 -148 q-35 -74 -98 -73q-27 0 -67.5 8t-67.5 8q-25 0 -65.5 -8t-67.5 -8q-45 0 -59 43q-16 51 28 75q-45 41 -100 45q-68 4 -111.5 -52t-51.5 -136zM235 647q10 -14 41 4t19 51q-25 2 -43 -17q-27 -27 -17 -38z" />
<glyph unicode="6" horiz-adv-x="1217" d="M129 550q0 235 110 420q119 198 293 198h356q23 0 61.5 -37.5t38.5 -58.5q-2 -43 -71.5 -102.5t-110.5 -59.5q-61 0 -138 70t-130 70q-151 0 -219 -254q-12 -47 -12 -111q18 23 47 49q117 106 282 107q176 -2 298 -122t122 -300q0 -155 -96.5 -297t-190.5 -142 q-33 0 -86 10t-88 10t-88 -10t-86 -10q-225 0 -286 472q-6 47 -6 98zM366 491q0 -115 69.5 -188.5t174.5 -71.5q102 2 166.5 73.5t64.5 186.5q0 96 -67.5 162.5t-163.5 68.5q-98 2 -171 -67.5t-73 -163.5z" />
<glyph unicode="7" horiz-adv-x="1209" d="M92 1095q0 -65 105.5 -133t105.5 -133q0 -49 -47 -107q29 -20 67 -20q49 0 84 36.5t33 86.5q-2 49 -55 133q-10 16 -11 32q0 20 15 21q8 0 65 -12.5t96 -12.5q35 0 100.5 12.5t92.5 12.5q18 0 18 -19q0 -23 -24 -61q-125 -205 -170 -309q-76 -182 -76 -368v-72 q-31 -10 -80 -47q-31 -23 -47 -74q49 -78 105 -77q27 0 67.5 8t67.5 8t67.5 -8t67.5 -8q41 0 71 30q2 2 35 47q-14 45 -49 74q-43 35 -80 47v76q0 127 25 272q41 256 139 397q18 27 96 84q59 43 57 84q-2 37 -60 59t-124 22h-644q-43 0 -78 -23.5t-35 -57.5z" />
<glyph unicode="8" horiz-adv-x="1203" d="M121 317q0 -127 90 -232t217 -105q31 0 77.5 10t77.5 10q37 0 78 -8q63 -10 78 -12q127 -16 219 92t87 245q-8 264 -265 399q217 117 214 235q-2 117 -77 168q-49 33 -172 57q-162 31 -324 0q-98 -18 -175.5 -85.5t-73.5 -139.5q2 -55 72.5 -125.5t162.5 -111.5 q-286 -137 -286 -397zM315 409q2 65 78 156q88 106 196 108q102 2 185 -76t83 -188q0 -59 -36.5 -106t-92.5 -41q-127 16 -255 -6q-63 -10 -111.5 39t-46.5 114zM376 947q-6 96 113 117q96 16 219 0q76 -10 82 -117q6 -98 -68 -137q-16 -8 -151 -43q-76 8 -133 59.5 t-62 120.5z" />
<glyph unicode="9" horiz-adv-x="1203" d="M104 861q0 121 111.5 221.5t250.5 100.5h195q194 0 303 -199q92 -168 92 -409q0 -215 -105 -399q-110 -196 -259 -196q-31 0 -80 10t-80 10t-79 -10t-79 -10q-92 0 -168.5 78.5t-76.5 176.5q0 61 42 105.5t101 44.5q33 0 55 -17q16 -12 17 -20l-16 -16q-15 -15 -15 -29 q0 -33 33 -50.5t69 -11.5q141 20 250 0q12 -2 24 -2q94 0 154 140q47 113 43 214q-2 25 -10 78q-18 -18 -45 -39q-129 -98 -272 -102q-176 -4 -309 84q-145 94 -146 247zM346 870q0 -108 75 -164q68 -49 172 -45q233 10 234 209q0 90 -69 148t-165 62q-98 4 -172.5 -57 t-74.5 -153z" />
<glyph unicode=":" horiz-adv-x="759" d="M0 92q0 -41 26.5 -70.5t73.5 -29.5t74 29.5t27 70.5t-27 70.5t-74 29.5t-73.5 -29.5t-26.5 -70.5zM0 767q0 -41 26.5 -70.5t73.5 -29.5t74 29.5t27 70.5t-27 70.5t-74 29.5t-73.5 -29.5t-26.5 -70.5z" />
<glyph unicode=";" horiz-adv-x="759" d="M0 767q0 -41 26.5 -70.5t73.5 -29.5t74 29.5t27 70.5t-27 70.5t-74 29.5t-73.5 -29.5t-26.5 -70.5zM2 82q-2 -45 25.5 -82t70.5 -47q33 -8 6 -61q-18 -37 -61 -37q10 -12 39 -25q55 -2 98 67.5t35 143.5q-18 162 -111 155q-43 -4 -71.5 -36.5t-30.5 -77.5z" />
<glyph unicode="&#x3c;" horiz-adv-x="1207" d="M61 565q0 37 27 61l849 338q14 -27 14 -64t-14 -63l-587 -223q-65 -25 -66 -49q0 -20 66 -47l587 -240q12 -18 14 -53q4 -39 -14 -74l-849 356q-27 25 -27 58z" />
<glyph unicode="=" horiz-adv-x="634" d="M92 284q0 31 10 56h401q10 -27 11 -56q0 -33 -11 -53h-401q-10 20 -10 53zM92 509q0 31 10 56h401q10 -27 11 -56q0 -33 -11 -53h-401q-10 20 -10 53z" />
<glyph unicode="&#x3e;" horiz-adv-x="1198" d="M160 225q-4 -37 14 -74l849 356q27 25 27 58q0 37 -27 61l-849 338q-14 -27 -14 -64t14 -63l585 -223q68 -27 68 -49q0 -18 -68 -47l-585 -240q-10 -16 -14 -53z" />
<glyph unicode="?" horiz-adv-x="1039" d="M88 982q0 -119 84 -201.5t204 -82.5q78 0 140.5 52t62.5 126q0 14 -11.5 39.5t-11.5 35.5q0 12 10.5 20.5t22.5 10.5q-41 31 -71 31q-33 0 -71 -44t-71 -42q-119 10 -118 94q0 72 63 119q57 45 137 45q94 0 156.5 -81t62.5 -181q0 -119 -63 -207q-59 -65 -121 -129 q-63 -70 -63 -139q0 -57 36.5 -100t92.5 -43q55 0 105 27.5t50 64.5q0 8 14 14q10 4 25 -6q-8 20 -22.5 34.5t-32.5 14.5q-10 0 -33 -6t-33 -6q-53 0 -53 39q0 41 96 100q137 86 176 125q96 90 96 206q0 358 -425 359q-172 0 -295 -68q-139 -80 -139 -221zM479 100 q0 -110 84 -110q37 0 60.5 33.5t23.5 76.5q0 113 -84 113t-84 -113z" />
<glyph unicode="@" horiz-adv-x="1861" d="M131 624q-4 307 213 528t523 219q299 -2 508 -178q221 -186 219 -477q-2 -182 -100 -331q-100 -158 -228 -150q-113 8 -184 51q-96 11 -135 11t-100 -5.5t-100 -5.5q-100 0 -174 56.5t-74 146.5q0 68 82 137q49 43 149 98q82 45 80 53q-68 8 -137 15q-135 23 -135 114 q0 72 64 92q33 12 122 13q27 0 64 -5.5t59 -5.5q25 0 61.5 5.5t61.5 5.5q88 0 151 -39q72 -45 72 -121v-436l51 -47q121 6 188 117q61 100 60 241q-4 250 -195 401q-174 139 -430 141q-266 2 -452 -188t-182 -456q4 -260 215 -446q203 -180 467 -180q41 0 112.5 16.5 t118.5 16.5t122.5 -15.5t122.5 -15.5h101v-102h-91q-51 0 -128.5 15t-126.5 15q-47 0 -130 -17t-138 -13q-313 29 -524 223q-219 205 -223 503zM704 896q0 -45 100 -45q20 0 69.5 8t69.5 8q55 0 55 -42q0 -37 -70.5 -77t-137.5 -79q-74 -49 -74 -108q0 -43 39 -69t90 -26 q117 0 168 66v323q0 53 -58 66q-20 6 -108 6q-14 0 -44 3t-44 3q-55 0 -55 -37z" />
<glyph unicode="A" horiz-adv-x="1319" d="M63 219q0 -96 37 -162q42 -73 119 -73h2q104 0 164 155q17 45 17 94q0 21 -3 43q-24 -21 -54 -21q-6 0 -12 1q-78 8 -77 123q0 127 100 192q166 106 706 444q100 64 100 139v8q-4 43 -38 72.5t-79 29.5h-824q-43 0 -77 -24q-31 -23 -31 -58v-6q2 -51 57 -90 q98 -70 104 -75q12 -14 41 -41q41 16 53 51q8 21 8 40q0 28 -18 50q-4 4 -33 16q-20 8 -18 25q10 25 37 24h118l-261 -552q-78 -166 -91 -196q-47 -117 -47 -209zM340 677l86 184q25 59 88 182q51 84 87 84h3q63 -6 83 -114l19 -94l172 106l-19 76q-6 23 11.5 42t41.5 21h8 q57 0 58 -57q0 -47 -160 -143q-149 -88 -298 -174zM712 61q48 -77 103 -77h1q27 0 68 8t67 8q27 0 68 -8t67 -8q41 0 72 30q2 2 35 47q-14 45 -49 74q-43 35 -80 47l-158 714l-178 -110l111 -604q-31 -10 -80 -47q-31 -23 -47 -74z" />
<glyph unicode="B" horiz-adv-x="1366" d="M88 1195q6 69 105 69h3h878q47 0 83 -36.5t36 -83.5q0 -139 -148 -234l-112 -71l61 -31q264 -133 264 -397q0 -155 -69 -276q-84 -145 -229 -145q-53 0 -140.5 8t-142.5 8q-70 0 -178 -8t-172 -8q-63 0 -186 69q39 65 101.5 111.5t131.5 64.5v698l225 -92v-491 q0 -88 48 -88q172 0 171 0q72 4 115 66q41 59 41 134v7q-2 139 -35 194q-25 41 -114 96q-113 68 -275 135q-215 90 -268 115q-110 53 -135 73q-60 43 -60 102q0 5 1 11zM315 1115q2 -49 43 -65q131 -45 428 -152l75 -28l68 42q39 25 47 86q2 14 2 88q0 41 -27.5 71t-68.5 30 h-229q-53 0 -54 -84v-109l-225 80v43q0 27 -16 37q-23 14 -39 -2q-5 -4 -5 -23q0 -6 1 -14z" />
<glyph unicode="C" horiz-adv-x="1307" d="M149 675q0 252 173 436t421 184q153 0 264 -63q129 -74 129 -203q0 -117 -83 -185.5t-198 -68.5q-74 0 -127 50.5t-53 121.5q0 65 -41 66q-16 0 -40.5 -15.5t-41.5 -15.5q-61 0 -61 72q0 67 99 67h3q70 0 117 -59t88 -59q92 0 92 108q0 96 -153 96q-209 0 -324 -151 q-100 -135 -100 -344q0 -188 130 -322t314 -134q217 2 348 174q83 -83 83 -138q0 -5 -1 -10q-23 -151 -158 -233q-119 -76 -286 -76q-260 0 -432 217q-162 205 -162 485z" />
<glyph unicode="D" horiz-adv-x="1409" d="M88 1195q6 69 105 69h3h500q278 0 425 -210q125 -176 139 -469q1 -17 1 -34q1 -231 -153 -391q-164 -170 -410 -170q-57 0 -105.5 8t-78.5 8q-29 0 -71 -8t-116 -8q-78 0 -186 69q39 65 101.5 111.5t131.5 64.5v698l225 -92v-389q0 -25 25 -57q4 -6 4 -10q0 -16 -29 -35 l-130 -88h304q137 0 211 137q61 117 61 295q0 180 -63 317q-82 176 -243 176h-86q-53 0 -54 -84v-113l-225 82v45q0 27 -16 37q-23 14 -39 -2q-6 -6 -4 -37q2 -49 43 -65q162 -65 299 -109q153 -49 154 -155q0 -5 -1 -11q-4 -55 -30 -90q-31 -41 -78 -41q-84 0 -96 95 q51 0 61 45q3 11 3 20q0 35 -36 51q-82 31 -352 154q-110 53 -135 73q-60 43 -60 102q0 5 1 11z" />
<glyph unicode="E" horiz-adv-x="1409" d="M141 59q39 65 101.5 111.5t131.5 64.5v788q-41 20 -88 57t-85 84q45 47 92 70q39 18 86 24q143 18 272 19q61 0 341 -17q76 -4 139 -30q72 -29 76 -66v-7q0 -54 -90 -105q-135 -80 -340 -193q-35 -20 -34 -34q0 -4 2 -9q6 -16 24 -16q16 0 55 15.5t66 15.5 q182 -2 182 -143q0 -38 -20 -74q2 16 -9 30q-6 8 -34 17q-16 2 -31 2q-47 0 -130 -40t-146 -40q-53 0 -88 43t-39 102v9q0 79 98 153q68 47 219 153q39 29 39 70q0 37 -39 35q-32 3 -84.5 3t-126.5 -3q-82 -14 -82 -135v-162l-10 -14q-35 -49 -35 -109q0 -53 29 -92l16 -22 v-274q0 -53 38 -82q36 -27 82 -27h7h385q33 0 51 32q13 23 14 45q0 8 -2 17q39 -20 56 -37q38 -42 38 -108q0 -95 -100 -149q-86 -47 -208 -47q-53 0 -133 12t-131 12q-47 0 -120 -13t-140 -13q-133 0 -295 77z" />
<glyph unicode="F" horiz-adv-x="1276" d="M141 59q101 -69 184 -69h2q74 0 105.5 8t54.5 8t53.5 -8t103.5 -8q84 0 187 69q-39 65 -101.5 111.5t-130.5 64.5v379l-16 22q-29 39 -29 92q0 59 35 109l10 14v162q0 121 82 135q34 5 76 5q21 0 43 -1q80 -4 92 -4q39 2 39 -35q0 -41 -39 -70q-72 -49 -219 -153 q-98 -74 -98 -153v-9q4 -59 39 -102t88 -43q63 0 146 40t130 40q14 0 28.5 -2t36.5 -17q10 -14 9 -30q20 37 20 74q0 140 -182 143q-27 0 -65.5 -15.5t-55.5 -15.5q-18 0 -24 16q-2 4 -2 9q0 14 34 34q102 55 340 193q90 52 90 105v7q-4 37 -76 66q-63 27 -139 30 q-280 16 -341 17q-129 0 -272 -19q-47 -6 -86 -24q-47 -23 -92 -70q39 -47 85.5 -84t87.5 -57v-788q-70 -18 -132 -64t-101 -112z" />
<glyph unicode="G" horiz-adv-x="1264" d="M82 522q-1 58 -1 111.5t1 103.5q4 176 127 343q137 188 329 199q120 6 213 6t159 -6q94 -10 111 -15q55 -14 59 -61q4 -63 -190 -174q-110 -63 -317 -200q-10 -6 -10 -21q0 -10 10 -37.5t10 -42.5q0 -43 -39 -79.5t-92 -46.5q6 12 6 23q0 24 -28 55q-31 32 -31 48 q0 78 72 133q51 39 210 148q123 82 123 92q0 51 -61 55q-46 4 -94.5 4t-98.5 -4q-262 -20 -262 -367v-5q-1 -36 -1 -94t1 -138q4 -102 72 -179.5t174 -110.5q82 -27 123 -27q43 0 82 23q92 51 92 100v299q-12 4 -51 35q-18 14 -37 51q8 12 17 23t48 11q27 0 68 -7t67 -7 q29 0 69 7t68 7q39 0 49.5 -12t16.5 -22q-20 -37 -35.5 -49.5t-54.5 -36.5v-481q0 -16 28 -41q12 -4 37 -16l62 -31q-23 -37 -52 -61q-41 -35 -98 -38t-112 -5h-15q-38 0 -88 8q-65 10 -102 10q-45 0 -116.5 -9t-116.5 -9q-137 0 -267 174.5t-134 363.5z" />
<glyph unicode="H" horiz-adv-x="1245" d="M20 1174q-2 90 154 90h718q86 0 113 -10q35 -14 45 -59q4 -23 -6.5 -47.5t-10.5 -32.5t5 -17.5t22 -23.5q-53 -41 -113 -41q-43 0 -89 61.5t-89 61.5h-229q-53 0 -53 -84v-49l-225 63v29q0 25 -14.5 35t-30.5 6t-19.5 -15.5t-3.5 -17.5q0 -31 68 -59q151 -61 444 -92 q170 -18 303 -145q143 -138 143 -318q0 -137 -120 -323t-120 -290q0 -59 41 -60q10 0 27.5 5.5t28.5 5.5q37 0 64.5 -25t29.5 -59v-5q0 -45 -33 -73q-43 18 -80 18q-14 0 -35.5 -8t-35.5 -8q-72 0 -109 45t-37 113q0 121 53.5 323t53.5 315q0 280 -287 376q-117 37 -409 131 q-70 25 -115.5 75t-48.5 109zM133 61l35 -47q28 -30 67 -30h2q29 0 70 8t67 8q27 0 68 -8t67 -8q55 0 105 77q-16 49 -49 74q-23 18 -78 47v696l-225 73v-769q-37 -10 -80 -47q-35 -29 -49 -74z" />
<glyph unicode="I" horiz-adv-x="847" d="M39 1185q0 92 172 92q31 0 79 -8.5t80 -8.5q39 0 96.5 8.5t94.5 8.5q41 0 69 -31q16 -23 35 -47q-16 -49 -49 -74q-70 -53 -129 -55v-149l-225 114v62q0 29 -27 28q-16 0 -20 -30q-3 -10 -3 -19q0 -33 36 -53q14 -8 331 -172q29 -14 57.5 -30.5t36.5 -43.5q6 -18 6 -38 q0 -59 -47 -78q-14 2 -43 -6q-14 -12 -18 -31q-30 25 -30 64q0 7 1 14q0 8 13.5 20t13.5 23q0 27 -19 39q-98 49 -366 188q-145 78 -145 213zM113 61q35 -47 34 -47q28 -30 67 -30h3q31 0 79 8t78 8q31 0 78 -8t78 -8q55 0 104 77q-16 49 -49 74q-53 41 -98 47v618l-225 117 v-735q-53 -8 -100 -47q-35 -29 -49 -74z" />
<glyph unicode="J" horiz-adv-x="1084" d="M119 -84q-1 8 -1 15q0 80 58 149q10 12 49 28q31 14 37 37q2 21 0 39q18 -2 36.5 -17.5t18.5 -31.5q0 -12 -11 -35.5t-11 -38.5q0 -23 18 -50t41 -27h147q78 0 78 178v759q0 31 -59.5 56.5t-57.5 45.5q6 33 47 39q68 10 219 33q16 2 17 30q0 29 -37 33q-74 16 -151 16 t-156 -16q-47 -10 -47 -37q0 -18 41 -44.5t41 -86.5q0 -61 -72 -108q-42 -28 -90 -28q-23 0 -47 7q49 49 49 90q0 47 -68.5 102.5t-68.5 98.5q0 92 166 114q107 14 214 14t213 -14q277 -38 277 -108q0 -44 -58 -61q-45 -16 -92 -31q-55 -31 -55 -66v-967q88 -41 94 -94 q1 -5 1 -10q0 -69 -100 -137q-107 -74 -220 -74h-256q-82 0 -140 57t-64 141z" />
<glyph unicode="K" horiz-adv-x="1348" d="M39 1185q0 92 172 92q31 0 79 -8.5t80 -8.5q39 0 96.5 8.5t94.5 8.5q41 0 69 -31q16 -23 35 -47q-16 -49 -49 -74q-70 -53 -129 -55v-149l-225 114v62q0 29 -27 28q-16 0 -20 -30q-3 -10 -3 -19q0 -33 36 -53q180 -94 331 -172q2 -1 6 -1q27 0 123 67q84 57 100 73 q41 43 47 100v6q0 25 -14 61q-16 40 -16 60q0 47 55 47h266q18 0 31.5 -17t25.5 -34l-47 -20q-16 -6 -66 -51q-29 -27 -58 -73t-54 -71q-51 -51 -180 -128l-51 -31l51 -35q43 -27 85 -54.5t68 -66.5q51 -74 84 -253q33 -190 80 -270q12 -20 88 -66l72 -43q-31 -61 -92 -71 q-5 -1 -11 -1q-17 0 -39 9q-35 12 -53 12q-23 0 -57.5 -10t-54.5 -10q-98 0 -119 40q-33 65 -47 170q-23 162 -29 189q-39 176 -67 235q-52 113 -156 170q-98 49 -366 188q-145 78 -145 213zM113 61q35 -47 34 -47q28 -30 67 -30h3q31 0 79 8t78 8q31 0 78 -8t78 -8 q55 0 104 77q-16 49 -49 74q-53 41 -98 47v618l-225 117v-735q-53 -8 -100 -47q-35 -29 -49 -74z" />
<glyph unicode="L" horiz-adv-x="1305" d="M82 51q4 80 71.5 131t132.5 100q37 37 37 76v708q-53 8 -100 47q-35 29 -49 74q18 23 37 47q28 30 65 30h2h313q39 0 68 -30q18 -25 37 -47q-16 -49 -49 -74q-53 -41 -99 -47v-638l41 -39q45 -43 45 -66t-24.5 -36t-46.5 -25q-59 -33 -142 -66q-96 -35 -139 -57 q-31 -14 -39 -20q-16 -12 -18 -31q-2 -27 35 -29h-2l69 2q51 0 129 37q68 33 137 66q127 55 133 57q65 20 164 20q47 0 57 31q4 12 -20 55q-31 51 -61.5 104.5t-30.5 106.5q0 29 31.5 46.5t33.5 35.5q4 35 -10 61q39 -6 61.5 -19t43 -28.5t24.5 -74.5v-14q0 -26 -5 -58 q-7 -41 -7 -59q0 -45 26 -101q20 -43 94 -131q57 -68 60 -114q2 -61 -99 -100q-88 -33 -198 -33q-61 0 -159.5 25.5t-161.5 25.5q-55 0 -140 -25.5t-136 -25.5q-211 0 -211 97v5z" />
<glyph unicode="M" horiz-adv-x="2000" d="M223 1123q0 -51 61 -94q18 -14 123 -65l33 -17l49 84l-39 21q-20 10 -29 49q-2 26 58 26h4q53 0 51 -22q-4 -37 -27.5 -78t-46.5 -80q-106 -221 -143 -333q-51 -162 -51 -348q0 -98 20 -184q23 -98 58 -98q23 0 61.5 8t63.5 8t62.5 -8t61.5 -8q47 0 82 77q-23 18 -55 49 q-35 16 -98 70q-80 108 -82 256v11q0 264 196 572q70 108 148 108q65 0 88 -30q14 -20 14 -72v-119h225v113q0 43 30.5 72.5t75.5 35.5q11 1 21 1q79 0 121 -83q72 -141 98 -294q14 -76 37 -325q2 -27 2 -56q0 -178 -56 -219q-27 -20 -90 -63l-45 -27q54 -77 113 -77h2 q25 0 62.5 8t62.5 8t63.5 -8t60.5 -8q65 0 76 118q8 104 8 189q0 147 -65 497q-8 39 -49 161q-24 75 -24 122q0 10 1 19q4 35 58 35q55 0 55 -53q0 -45 -60 -67l-30 -13l26 -82l31 13q88 35 165 103q69 61 69 101q0 5 -1 9q-25 128 -161 128h-2h-1428q-49 0 -82 -45t-33 -96 zM573 882l12 -4q233 -78 413 -78q280 0 414 27l20 4l-24 81l-15 -2q-208 -30 -384 -30h-11q-178 0 -368 82l-14 6zM743 61q29 -45 30 -47q26 -30 65 -30h3q31 0 79 8t78 8q31 0 78 -8t78 -8q51 0 94 77q-35 41 -49 54q-27 23 -88 67v604h-225v-604q-43 -18 -90 -57 q-35 -29 -53 -64z" />
<glyph unicode="N" horiz-adv-x="1526" d="M113 1158q4 51 48 78.5t101 27.5h579q293 0 413 -96q113 -86 113 -282q0 -123 -64 -233q-25 -41 -125 -168q-70 -88 -77 -147q-4 -29 9 -55.5t42 -26.5q27 0 67.5 11t65.5 11q72 0 116 -63q39 -55 39 -129q0 -68 -51 -125q0 31 -28 37q-25 0 -52 2h-6q-27 0 -67 -14 q-44 -16 -70 -17q-102 0 -173.5 79t-71.5 185q0 110 70.5 309t70.5 313q0 115 -76.5 196.5t-189.5 81.5h-170q-53 0 -53 -83v-209l-225 143v80q0 25 -15 37q-18 16 -33 16q-16 0 -28 -20q-6 -8 -6 -35q0 -53 22 -68q243 -153 438 -286q57 -35 115 -72q50 -40 50 -89 q0 -8 -1 -17q-23 -125 -123 -125q-86 0 -94 94q20 -8 42 5.5t22 35.5q0 27 -35 49q-164 108 -497 330q-94 62 -94 201q0 18 2 38zM221 61q48 -77 103 -77h1q27 0 68 8t67 8q27 0 68 -8t67 -8q41 0 72 30q2 2 35 47q-14 45 -49 74q-43 35 -80 47v465l-225 149v-614 q-31 -10 -80 -47q-31 -23 -47 -74z" />
<glyph unicode="O" horiz-adv-x="1290" d="M72 591q2 -237 104 -417q117 -201 303 -201q27 0 66.5 14.5t66.5 14.5t66.5 -14.5t66.5 -14.5q196 0 309 201q96 174 98 417v7q0 263 -143 458q-156 212 -397 212t-397 -212q-143 -193 -143 -458v-7zM276 681v17q0 180 82 315q87 150 231 150q12 0 23 -1q121 -10 208 -98 q-2 -16 -10 -43q-41 -133 -219 -205q-196 -80 -258 -278q-4 -12 -10 -45q-45 100 -47 188zM385 379q2 12 10 42q39 129 74 189q53 86 147 122q106 43 155 80q70 51 96 135q4 12 11 43q72 -123 71 -253q0 -176 -77 -316q-89 -160 -237 -160q-11 0 -23 1q-141 11 -227 117z " />
<glyph unicode="P" horiz-adv-x="1438" d="M141 59q101 -69 184 -69h2q74 0 105.5 8t54.5 8t53.5 -8t103.5 -8q84 0 187 69q-39 65 -101.5 111.5t-130.5 64.5v313l-16 23q-29 39 -29 92q0 51 35 106l10 17v227q0 121 82 135q33 5 64 5q16 0 32 -1q55 -4 70 -4h3q50 0 130 -68q94 -82 94 -168q0 -104 -35 -163 q-44 -72 -135 -72h-14q-103 7 -103 138q0 10 1 20q2 27 -19.5 46t-52.5 21q-29 6 -55 -14q20 0 31 -23q6 -25 -19 -40q-98 -71 -98 -158q1 -100 111 -175q108 -73 235 -73q384 0 384 420q0 145 -139 280q-147 141 -321 141h-466q-29 0 -86 -26q-49 -23 -92 -70 q39 -47 85.5 -84t87.5 -57v-788q-70 -18 -132 -64t-101 -112z" />
<glyph unicode="Q" horiz-adv-x="1290" d="M72 591q2 -237 104 -417q117 -201 303 -201q27 0 66.5 14.5t66.5 14.5t66.5 -14.5t66.5 -14.5q196 0 309 201q96 174 98 417v7q0 264 -143 458q-156 212 -397 212t-397 -212q-143 -193 -143 -458v-7zM276 681v17q0 179 82 315q87 150 231 150q11 0 23 -1q121 -10 208 -98 q-2 -16 -10 -43q-41 -133 -219 -205q-196 -80 -258 -278q-4 -12 -10 -45q-45 100 -47 188zM385 379q2 12 10 42q39 129 74 189q53 86 147 122q106 43 155 80q70 51 96 135q4 12 11 43q72 -123 71 -253q0 -176 -77 -316q-89 -160 -237 -160q-11 0 -23 1q-141 11 -227 117z M499 -186q0 25 27 59q43 59 47 66l26 45h27q-11 -12 -11 -50q0 -11 1 -24q8 -41 39 -41q14 0 34.5 6t32.5 6q61 0 92 -73q10 -25 10 -49q0 -33 -20 -66q-8 27 -35 41q-10 2 -35 8q-8 1 -17 1q-27 0 -60 -9q-51 -12 -78 -12q-80 0 -80 92z" />
<glyph unicode="R" horiz-adv-x="1450" d="M39 1185q0 75 168 75h4h738q72 0 130.5 -57.5t62.5 -118.5v-2q0 -30 -73 -102q-75 -74 -152 -121l-52 -30l52 -35q45 -25 90 -51.5t63 -69.5q33 -76 57 -256q25 -172 70 -257q18 -37 67 -66l72 -43q-27 -59 -92 -71q-5 -1 -11 -1q-17 0 -38 9q-29 12 -43 12 q-23 0 -57.5 -10t-55.5 -10q-98 0 -118 40q-31 61 -35 183q-4 149 -16 202q-55 243 -316 383q-100 47 -370 184q-145 78 -145 213zM113 61q35 -47 34 -47q28 -30 67 -30h3q31 0 79 8t78 8q31 0 78 -8t78 -8q55 0 104 77q-16 49 -49 74q-53 41 -98 47v618l-225 117v-735 q-53 -8 -100 -47q-35 -29 -49 -74zM215 1095q-3 -10 -3 -19q0 -33 36 -53q104 -55 274 -141q37 -18 85 -18q28 0 60 6q90 18 168 67q93 56 93 122q0 5 -1 11q-8 65 -92 66h-272q-76 -1 -76 -103v-112l-225 114v62q0 29 -27 28q-16 0 -20 -30z" />
<glyph unicode="S" horiz-adv-x="1233" d="M98 303v-6q0 -137 84 -239q86 -104 223 -105q37 0 94 13.5t94 13.5t94.5 -13.5t96.5 -13.5q137 0 229 119q88 113 88 261q0 344 -436 563q-110 49 -219 98q-107 53 -107 103q0 4 1 8q10 49 67 49h307q49 0 49 -39q0 -18 -13 -28.5t-13 -71.5q0 -78 61 -107q22 -10 43 -10 q31 0 61 21q-27 35 -26 53q0 43 51 74.5t51 99.5q0 51 -45 82.5t-102 31.5h-446q-106 0 -180 -39q-86 -46 -86 -127q0 -104 163 -214q106 -70 250 -125q127 -49 222 -145t95 -191q0 -92 -76.5 -150t-179.5 -58q-104 0 -143 10q-74 23 -82 92v6q0 45 82 55h4q24 0 60 -24 q38 -26 65 -27q125 0 158 103q7 22 7 45t-7 47q-14 -12 -52 -27q-31 0 -102.5 73.5t-156.5 75.5h-5q-131 0 -225 -99q-96 -101 -98 -238z" />
<glyph unicode="T" horiz-adv-x="1338" d="M92 1225q37 39 84 39h947q47 0 84 -38.5t39 -92.5v-2q0 -63 -100 -133q-93 -66 -92 -114v-8q2 -16 23.5 -37t23.5 -39q2 -14 2 -26q0 -59 -41 -72q-14 -6 -31 -4q10 10 8 26q-6 18 -26 21q-80 4 -84 82v7q0 51 50 121.5t50 95.5v3q-10 51 -67 51h-148q-51 0 -51 -123 v-800q45 -6 98 -47q33 -25 49 -74q-48 -77 -103 -77h-1q-31 0 -78 8t-77 8q-31 0 -79 -8t-79 -8q-41 0 -69 30l-35 47q14 45 49 74q47 39 100 47v800q0 123 -51 123h-149q-57 0 -66 -51v-3q0 -25 49 -95.5t49 -120.5v-8q-4 -78 -84 -82q-20 -2 -24 -21q-4 -12 6 -26 q-12 -2 -31 4q-38 13 -38 69q0 13 2 29q2 18 22 38.5t23 37.5q1 4 1 8q-1 48 -95 114q-100 70 -99 133q0 53 39 94z" />
<glyph unicode="U" horiz-adv-x="1362" d="M80 1199q0 65 102 65h377q94 0 106 -61q1 -6 1 -13q0 -28 -22 -56q-26 -34 -53 -68q-149 -192 -180 -248q-66 -120 -66 -257q0 -17 1 -33q6 -127 101 -210t224 -83q110 0 149 51q27 37 27 121q0 51 -64.5 152.5t-146.5 179.5q-49 45 -147 106l-37 22l57 76l19 -10 q72 -39 139 -92q41 -31 170 -170l28 -31v426q-53 8 -100 47q-35 29 -49 74q18 23 37 47q28 30 65 30h2h313q39 0 68 -30q18 -25 37 -47q-16 -49 -49 -74q-53 -41 -99 -47v-890q41 -12 84 -47t74 -100q-94 -43 -186 -52q-11 -1 -22 -1q-37 0 -85 10q-72 12 -104 14h-20 q-61 0 -142 -10q-106 -12 -167 -13q-172 0 -285 150q-106 139 -106 325q0 172 90 323q16 25 209 281q41 53 41 69q0 23 -97 23q-72 0 -69 -25q2 -35 45 -67l41 -31l-66 -84l-47 33q-102 72 -135 102q-63 61 -63 123z" />
<glyph unicode="V" horiz-adv-x="1440" d="M72 1213q-1 5 -1 10q0 41 93 41h570q74 0 80 -69q2 -39 -59 -62q-92 -31 -104 -40l-70 -39q-39 -23 -39 -47q0 -12 6 -25q51 -137 103 -274q92 -233 198 -370q10 -18 47 -41q23 -6 37 22.5t29 54.5q82 108 126 273q35 135 35 261q0 59 -9 96t-66 37q-27 0 -66 -8 q-49 -10 -137 -16t-139 -19q-76 -18 -86 -18q-16 0 -21 8q-12 23 21 41q72 39 313 127q8 2 147 70q78 38 150 38h4q147 0 157 -98q1 -10 1 -21q0 -111 -106 -369q-116 -284 -273 -535q-51 -92 -103 -184q-57 -98 -102 -104h-4q-30 0 -74 63q-1 2 -77 129q-104 176 -242 499 q-131 311 -159 356q-8 12 -25 3q-6 -2 -12 -3q-25 0 -25 23q0 12 15 16q27 8 245 105q29 12 29 20q0 10 -31 12h-182q-41 0 -41 -36v-7q2 -12 16 -22l27 -27l-76 -32l-39 38q-68 68 -81 123z" />
<glyph unicode="W" horiz-adv-x="1900" d="M114 1232q34 32 80 32h512q70 0 71 -61q0 -14 -18 -30.5t-16 -30.5q4 -33 30 -47q-19 -5 -36 -5q-34 0 -62 21q-10 6 -17 30.5t-24 24.5h-71q-27 0 -38 -27.5t-7 -58.5l112 -681q8 -49 35 -49q29 0 57 49q133 228 133 406v20q-4 25 -8 28q-10 10 -49 17q-92 16 -178 26 q-16 0 -49 4l-17 109q207 -45 449 -47h17q228 0 459 51l-20 -107q-2 0 -98 -14q-115 -16 -171.5 -22.5t-56.5 -36.5q0 -10 3 -25q20 -96 43.5 -193t78.5 -189q16 -27 53 -27q29 0 35 20q70 201 100 342q18 80 58 319q4 31 -7.5 58.5t-37.5 27.5h-143q-16 0 -23.5 -24.5 t-17.5 -30.5q-27 -22 -62 -22q-18 0 -37 6q29 16 31 47q2 12 -16.5 29.5t-18.5 31.5q2 61 72 61h440q47 0 80.5 -31.5t35.5 -76.5v-5q0 -66 -98 -146q-86 -72 -104 -72l18 102q10 4 29 17q33 27 31 45q-2 29 -27 28q-37 0 -41 -20q-39 -235 -76 -473q-53 -256 -192 -554 q-45 -98 -102 -98q-45 0 -84 69q-92 162 -111 197q-43 88 -81 190q-6 25 -13.5 48t-15.5 23q-14 0 -51 -69q-49 -108 -178 -370q-43 -82 -94 -82q-61 0 -113 124q-74 180 -133 467q-49 264 -96 528q-4 20 -41 20q-23 0 -24 -28q-2 -20 30 -45q12 -10 29 -17l16 -102 q-200 118 -200 218q0 48 36 81z" />
<glyph unicode="X" horiz-adv-x="1440" d="M57 116q0 48 115 156q12 14 227 205l151 135l-73 110q-53 80 -189 278q-6 12 -22 3q-6 -2 -12 -3q-25 0 -25 23q0 12 14 16q29 10 93 45q76 43 114 60q29 12 29 20q0 10 -31 12h-182q-41 0 -41 -36v-7q2 -12 16 -22l41 -37l-51 -22l-45 38q-84 72 -94 123q-1 4 -1 9 q0 42 95 42h467q74 0 79 -69v-2q0 -37 -59 -60q-92 -31 -104 -40q-26 -21 -26 -43q0 -13 9 -27q47 -59 142 -198l34 -58l78 68q72 61 145 123q74 68 74 95v1q-2 27 -27.5 37t-56.5 4q-88 -20 -245 -62q-72 -18 -86 -18q-16 0 -21 8q-12 25 21.5 42t246.5 97q74 33 146 68 q78 34 149 34h4q96 0 102 -51q1 -6 1 -13q0 -90 -126 -208q-133 -115 -266 -229l-79 -71l358 -500q53 -2 125 -57q33 -25 49 -74q-18 -23 -35 -47q-30 -30 -68 -30h-2q-45 0 -131 10q-62 6 -110 6h-23q-25 -2 -69.5 -9t-75.5 -7q-55 0 -104 77q16 51 47 74q25 18 80 47 l-225 348l-138 -125q-112 -101 -112 -163v-1q0 -20 97 -67t101 -92v-5q0 -32 -47 -54q-43 -23 -96 -23q-20 0 -51 10t-51 10q-25 2 -61.5 -9t-61.5 -11q-49 0 -86 32q-41 34 -41 84z" />
<glyph unicode="Y" horiz-adv-x="1440" d="M27 1213q-1 5 -1 10q0 41 93 41h534q79 0 79 -71q0 -38 -59 -60q-92 -31 -104 -40q-35 -27 -35 -52q0 -10 4 -18q88 -174 229 -297l47 -41l72 58q192 153 192 286q0 18 -4 35q-10 39 -67 39q-27 0 -66 -8q-102 -25 -245 -62q-72 -18 -86 -18q-16 0 -21 8q-12 25 21.5 42 t246.5 97q74 33 146 68q78 34 149 34h4q149 0 160 -98q1 -6 1 -12q0 -161 -386 -524l-76 -71v-377q45 -6 98 -47q33 -25 50 -74q-48 -77 -104 -77h-1q-31 0 -78 8t-77 8q-31 0 -79 -8t-79 -8q-41 0 -69 30l-35 47q14 45 49 74q47 39 100 47v289l-59 63q-92 100 -186 248 q-68 110 -133 218q-8 12 -25 3q-6 -2 -12 -3q-25 0 -25 23q0 12 15 16q27 8 245 105q29 12 29 20q0 10 -31 12h-182q-41 0 -41 -36v-7q2 -12 16 -22l27 -27l-76 -32l-43 38q-39 31 -77.5 65t-44.5 58z" />
<glyph unicode="Z" horiz-adv-x="1391" d="M108 1131q0 108 197 135q108 14 309 15h42q173 0 271 -15q276 -38 276 -107q0 -41 -42 -94q-38 -48 -77 -93l-521 -669q-31 -39 -31 -57q0 -45 61 -45h379q76 0 88 45q1 5 1 9q-1 31 -55 57q-64 30 -126 58q-66 40 -66 93q0 63 54 87q52 23 53 39q0 39 -15 66 q23 16 86 20h5q29 -1 53 -25q26 -26 30 -61q2 -23 -26.5 -51.5t-24.5 -50.5q8 -49 80 -113q96 -86 121 -120q51 -71 51 -158q0 -17 -2 -35q-12 -126 -160 -126h-2q-18 0 -83.5 4t-184.5 28q-98 23 -172 23h-12q-49 0 -143 -27q-63 -15 -114 -15q-15 0 -29 1q-72 6 -144 10 q-74 12 -92 72q-6 20 -6 41q0 53 68 143l667 880q16 23 16 30q0 29 -37 33q-70 14 -223 14t-227 -14q-51 -10 -51 -29q2 -6 4 -8q92 -137 205 -260q16 -16 16 -36q0 -33 -69.5 -86.5t-69.5 -71.5q-4 -29 -5 -51q0 -7 1 -14q-23 2 -56 24q-43 31 -49 66q-1 6 -1 12 q0 40 37 72q42 36 42 63q0 6 -148.5 123.5t-148.5 168.5z" />
<glyph unicode="[" horiz-adv-x="1070" d="M20 1174q-2 90 154 90h581q84 0 115.5 -12t39.5 -57q4 -23 -6 -47.5t-10 -30.5q0 -10 6 -21.5t21 -21.5q-49 -41 -113 -41q-43 0 -89 61.5t-87 61.5h-92q-53 0 -53 -84v-890q0 -90 53 -90h92q43 0 88 61.5t88 61.5q63 0 113 -41q-12 -10 -19.5 -21.5t-7.5 -19.5 t10.5 -32.5t5.5 -47.5q-8 -53 -233 -53h-481q-39 0 -67 25q-18 18 -37 36q14 45 49 74q57 47 121 47l6 796q27 16 27 37q0 35 -23 55l-10 6v39q0 25 -14.5 35t-30.5 6t-19.5 -15.5t-3.5 -17.5q0 -43 68 -59q8 -2 16 -19.5t6 -31.5q-4 -33 -49 -33q-27 0 -51 10 q-162 72 -164 184z" />
<glyph unicode="\" horiz-adv-x="982" d="M129 1142l583 -1232q20 -10 53 -10q30 0 55 10l-583 1232q-35 10 -55 10q-27 0 -53 -10z" />
<glyph unicode="]" horiz-adv-x="1070" d="M108 174q12 -10 19.5 -21.5t7.5 -19.5t-10 -32.5t-6 -47.5q8 -53 231 -53h491q41 0 67 25q20 18 39 36q-14 45 -49 74q-59 49 -131 47v790l-8 6q-25 18 -25 37q0 37 23 55l10 6v39q0 27 17 37q10 8 26 4q18 -4 20.5 -15.5t2.5 -19.5q0 -41 -66 -57q-8 -2 -16 -19.5 t-6 -31.5q4 -33 49 -33q27 0 51 10q160 72 164 184q4 90 -154 90h-581q-84 0 -112 -10q-35 -14 -43 -59q-4 -23 6 -47.5t10 -30.5q0 -10 -6 -21.5t-21 -21.5q49 -41 113 -41q43 0 88 61.5t88 61.5h92q53 0 53 -84v-890q0 -90 -53 -90h-92q-43 0 -89 61.5t-87 61.5 q-63 0 -113 -41z" />
<glyph unicode="^" horiz-adv-x="2045" d="M151 980h103l110 141l109 -141h102l-160 284h-102z" />
<glyph unicode="_" horiz-adv-x="828" d="M0 0v-102h829v102h-829z" />
<glyph unicode="`" horiz-adv-x="466" d="M96 1133q0 35 24.5 58.5t59.5 23.5t65.5 -27.5t30.5 -62.5q0 -23 -14 -43q-4 -6 7 -22t138 -96q0 -8 -39 -9q-141 0 -229 84q-43 41 -43 94z" />
<glyph unicode="a" horiz-adv-x="1280" d="M135 256q0 88 102 176q63 53 193 122q102 57 100 68q-86 10 -174 18q-172 29 -172 146q0 90 80 118q43 14 157 15q35 0 81 -8.5t73 -8.5q31 0 79 8.5t78 8.5q110 0 191 -52q90 -57 90 -151v-552l90 -82q-104 -82 -170 -82q-45 0 -116.5 6t-114.5 6q-49 0 -126 -6t-126 -6 q-127 0 -221 70.5t-94 185.5zM395 773q0 -57 127 -57q25 0 86 9t88 9q71 0 71 -52q0 -48 -89 -98t-177 -99q-92 -63 -92 -137q0 -57 49 -89t115 -32q149 0 215 86v409q0 65 -74 82q-25 6 -139 6q-18 0 -58 4t-57 4q-65 0 -65 -45z" />
<glyph unicode="b" horiz-adv-x="1264" d="M84 1223q0 41 41 41h301v-392q107 75 238 75h7q186 -2 307 -159q108 -139 108 -325v-23q-4 -166 -71 -280q-76 -129 -217 -160q-25 -6 -49 -6q-27 0 -76 9t-82 9t-82 -10t-71 -10q-27 0 -53 8q-184 63 -184 221v933l-27 12q-90 41 -90 57zM426 368q0 -41 27.5 -68.5 t66.5 -27.5q23 0 56.5 6t55.5 6q20 0 56 -6t57 -6q120 0 120 292q0 99 -61 170.5t-151 71.5q-76 0 -128 -39t-54 -39q-16 0 -45 21v-381z" />
<glyph unicode="c" horiz-adv-x="1133" d="M102 456q0 -184 64 -307q76 -149 221 -149q37 0 88 5t84 5q35 0 92 -5t94 -5q213 0 213 194v11q-2 104 -123 141q-10 -27 -27 -47q-33 -41 -86 -51q-23 -4 -106 -5q-139 0 -243.5 87t-104.5 220q0 117 75.5 204t188.5 87q186 0 186 -78q0 -29 -39 -29q-16 0 -50 6.5 t-44 6.5h-10q-39 0 -57 -28q-19 -29 -19 -69v-8q2 -45 62 -53q-10 10 -11 31q0 27 45 27q27 0 65 -44t68 -44q221 0 221 235q0 65 -58 105t-132 40q-31 0 -79 -5t-81 -5q-35 0 -86 5t-75 5q-160 0 -254 -155q-82 -139 -82 -328z" />
<glyph unicode="d" horiz-adv-x="1264" d="M110 440q-1 13 -1 25q0 182 110 323q123 158 309 159h7q131 0 238 -75v282l-26 12q-90 41 -90 57q0 41 41 41h300v-1100l88 -82q-100 -82 -167 -82q-45 0 -117 6t-117 6q-47 0 -123.5 -6t-125.5 -6q-119 0 -219 139t-107 301zM333 569q0 -297 119 -297q23 0 57.5 6 t55.5 6q23 0 57.5 -6t54.5 -6q41 0 68.5 27.5t27.5 68.5v381q-33 -20 -47 -21l-53 39t-129 39q-90 0 -150.5 -71.5t-60.5 -165.5z" />
<glyph unicode="e" horiz-adv-x="1151" d="M102 456q0 -184 64 -307q76 -149 221 -149q37 0 88 5t84 5q35 0 92 -5t94 -5q104 0 183 74q77 72 77 167q0 64 -37 99q-23 22 -86 47q-2 -25 -21 -60q-31 -57 -102 -75q-41 -9 -126 -9h-17q-100 2 -188 62q2 35 4 45q4 23 18 41q29 39 94 65q80 35 109 58 q98 59 197 123.5t99 156.5q0 65 -58 105t-132 40q-31 0 -79 -5t-81 -5q-35 0 -86 5t-75 5q-160 0 -254 -155q-82 -139 -82 -328zM268 550q0 117 75.5 204t188.5 87q186 0 186 -82q0 -45 -41 -88q-43 -45 -157 -100q-104 -49 -146 -113q-24 -35 -38 -84q-68 74 -68 176z" />
<glyph unicode="f" horiz-adv-x="609" d="M84 872q0 -14 90 -56l27 -12v-700q-14 -4 -52 -32q-18 -14 -39 -52q8 -12 17.5 -24t48.5 -12q29 0 69.5 8t67.5 8t67.5 -8t67.5 -8q39 0 49 13t17 23q-16 31 -34 46.5t-54 37.5v700l24 12q6 4 39 19q25 10 38 18t13 19q0 40 -39 40h-2h-182l-45 76q-18 33 -18 55 q0 23 13 35t32 12q20 0 103 -28q72 -24 117 -24q7 0 13 1q47 4 83 41t38 86v11q0 66 -23 102q-61 -18 -123 -23h-7q-44 0 -106 20q-67 23 -101 23q-82 0 -142 -31q-67 -36 -67 -100q0 -61 31 -116q10 -23 69 -103l27 -37h-86q-41 0 -41 -40z" />
<glyph unicode="g" horiz-adv-x="1151" d="M141.5 -98.5q24.5 26.5 65.5 26.5q51 0 98 -36q12 -10 45 -66q23 -41 57 -41h225q47 0 81 38t34 89v104q-44 -34 -78 -34h-2q-27 0 -67.5 9t-67.5 9t-66.5 -9t-68.5 -9q-147 0 -219 159q-57 125 -57 319q0 182 134 310t320 128h344q113 0 110 -41q0 -18 -15.5 -31.5 t-31.5 -25.5l-10 -10v-594q35 -61 41 -143q1 -16 1 -32q0 -132 -90 -238q-102 -119 -249 -119h-284q-180 0 -238 78q-36 48 -36 94q0 39 24.5 65.5zM333 514q0 -113 35 -185q43 -92 129 -92h129q51 0 86 31t35 113v229q0 80 -61.5 137t-143.5 57q-96 0 -155 -94 q-53 -82 -54 -196z" />
<glyph unicode="h" d="M110 20q8 -12 17.5 -24t48.5 -12q29 0 69.5 8t67.5 8t67.5 -8t67.5 -8q39 0 49 13t17 23q-16 31 -34 46.5t-54 37.5v563q31 33 73.5 45t85.5 22q18 4 39 5q47 0 83 -22.5t36 -61.5v-551q-14 -4 -51 -32q-18 -14 -39 -52q8 -12 17 -24t48 -12q29 0 70 8t67 8q27 0 68 -8 t67 -8q39 0 49.5 13t16.5 23q-16 31 -33.5 46.5t-54.5 37.5v618q0 188 -244 188q-205 0 -298 -100v344q18 14 51 41q2 2 37 43q-6 10 -16.5 23.5t-49.5 13.5q-27 0 -67.5 -8.5t-67.5 -8.5q-29 0 -69.5 8.5t-67.5 8.5q-39 0 -48 -12.5t-18 -24.5q16 -29 39 -45q12 -12 52 -39 v-1050q-14 -4 -52 -32q-18 -14 -39 -52z" />
<glyph unicode="i" horiz-adv-x="691" d="M84 872q0 -14 90 -56l27 -12v-700q-14 -4 -52 -32q-18 -14 -39 -52q8 -12 17.5 -24t48.5 -12q29 0 69.5 8t67.5 8t67.5 -8t67.5 -8q39 0 49 13t17 23q-16 31 -34 46.5t-54 37.5v700l24 12q6 4 39 19q25 10 38 18t13 19q0 40 -39 40h-2h-374q-41 0 -41 -40zM201 1107 q0 -39 33.5 -61.5t78.5 -22.5q113 0 113 84q0 86 -113 86q-47 0 -79.5 -23.5t-32.5 -62.5z" />
<glyph unicode="j" horiz-adv-x="857" d="M47 -143q0 -96 98 -154q84 -49 201 -49q127 0 221 58q104 65 104 169q0 125 -49 178q-14 14 -47 45v700l27 12q90 41 90 56q0 40 -39 40h-2h-375q-41 0 -41 -40q0 -12 31 -26.5t59 -29.5l25 -12v-781q8 -4 37 -21q63 -39 71 -96q1 -8 1 -16q0 -38 -25 -71 q-29 -40 -70 -46q-25 -3 -46 -3q-82 0 -111 50q-12 23 -6 29q2 4 29.5 -19.5t45.5 -23.5h10q68 0 93 51q10 20 10 43q0 10 -2 20q-10 -10 -23 -12q-20 -4 -38.5 14.5t-16.5 34.5q4 33 -21 51q-21 15 -58 15h-9q-74 -4 -124 -50.5t-50 -115.5zM350 1107q0 -37 34.5 -60.5 t77.5 -23.5q113 0 113 84q0 86 -113 86q-45 0 -78.5 -23.5t-33.5 -62.5z" />
<glyph unicode="k" d="M110 20q8 -12 17.5 -24t48.5 -12q29 0 69.5 8t67.5 8t67.5 -8t67.5 -8q39 0 49 13t17 23q-16 31 -34 46.5t-54 37.5v579q16 31 81 70q78 47 146 47q155 0 155 -86q0 -80 -172 -80q-16 0 -49 3t-47 3q-53 0 -80 -36q-6 -8 -6 -19q0 -31 107 -106q125 -88 160.5 -140.5 t48 -96.5t20.5 -148q8 -110 61 -110q20 0 51 8t49 8q20 0 51 -8t52 -8q33 0 49 14q10 12 18 22q-25 37 -38 49.5t-52 34.5q-4 18 -12 58q-8 63 -18.5 128.5t-42.5 100.5q-51 55 -133 86q-70 27 -140 51q-39 10 -30 26q4 8 18 9q8 0 46 -6.5t67 -6.5q94 0 163 43 q80 49 80 129q0 96 -98 152q-84 49 -203 49q-88 0 -180 -37q-84 -35 -122 -76v344q18 14 51 41q2 2 37 43q-6 10 -16.5 23.5t-49.5 13.5q-27 0 -67.5 -8.5t-67.5 -8.5q-29 0 -69.5 8.5t-67.5 8.5q-39 0 -48 -12.5t-18 -24.5q16 -29 39 -45q12 -12 52 -39v-1050 q-14 -4 -52 -32q-18 -14 -39 -52z" />
<glyph unicode="l" horiz-adv-x="691" d="M84 1223q0 -16 90 -57l27 -12v-1050q-14 -4 -52 -32q-18 -14 -39 -52q8 -12 17.5 -24t48.5 -12q29 0 69.5 8t67.5 8t67.5 -8t67.5 -8q39 0 49 13t17 23q-16 31 -34 46.5t-54 37.5v1160h-301q-41 0 -41 -41z" />
<glyph unicode="m" horiz-adv-x="1759" d="M110 20q8 -12 17.5 -24t48.5 -12q29 0 69.5 8t67.5 8t67.5 -8t67.5 -8q39 0 49 13t17 23q-16 31 -34 46.5t-54 37.5v563q31 33 73.5 45t85.5 22q18 4 39 5q47 0 83 -22.5t36 -61.5v-551q-14 -4 -51 -32q-18 -14 -39 -52q8 -12 17 -24t48 -12q29 0 70 8t67 8q27 0 68 -8 t67 -8q39 0 49.5 13t16.5 23q-16 31 -33.5 46.5t-54.5 37.5v563q31 33 73.5 45t85.5 22q18 4 39 5q47 0 83 -22.5t36 -61.5v-551q-14 -4 -51 -32q-18 -14 -39 -52q8 -12 17 -24t48 -12q29 0 70 8t67 8q27 0 68 -8t67 -8q39 0 49.5 13t16.5 23q-16 31 -32.5 46.5t-55.5 37.5 v618q0 196 -235 197q-70 0 -129.5 -41t-116.5 -84l-61 -39q-74 164 -242 164q-70 0 -127 -42t-112 -83l-61 -39v53q18 14 51 41q2 2 37 43q-6 10 -16.5 23.5t-49.5 13.5q-27 0 -67.5 -8.5t-67.5 -8.5q-29 0 -69.5 8.5t-67.5 8.5q-39 0 -48 -12.5t-18 -24.5q16 -29 39 -45 q12 -14 52 -39v-704q-14 -4 -52 -32q-18 -14 -39 -52z" />
<glyph unicode="n" horiz-adv-x="1155" d="M110 20q8 -12 17.5 -24t48.5 -12q29 0 69.5 8t67.5 8t67.5 -8t67.5 -8q39 0 49 13t17 23q-16 31 -34 46.5t-54 37.5v563q31 33 73.5 45t85.5 22q18 4 39 5q47 0 83 -22.5t36 -61.5v-551q-14 -4 -51 -32q-18 -14 -39 -52q8 -12 17 -24t48 -12q29 0 70 8t67 8q27 0 68 -8 t67 -8q39 0 49.5 13t16.5 23q-16 31 -33.5 46.5t-54.5 37.5v618q0 194 -242 195q-70 0 -127 -41t-112 -82l-61 -39v53q18 14 51 41q2 2 37 43q-6 10 -16.5 23.5t-49.5 13.5q-27 0 -67.5 -8.5t-67.5 -8.5q-29 0 -69.5 8.5t-67.5 8.5q-39 0 -48 -12.5t-18 -24.5q16 -29 39 -45 q12 -14 52 -39v-704q-14 -4 -52 -32q-18 -14 -39 -52z" />
<glyph unicode="o" horiz-adv-x="1172" d="M119 417q0 -153 90 -288t200 -135q23 0 79 8t91 8t90 -8t78 -8h3q108 0 198 134q91 136 91 289q0 219 -129.5 365.5t-330.5 146.5t-330.5 -146.5t-129.5 -365.5zM336 593q0 94 72 164q70 68 166 68h5q96 -2 163.5 -69t67.5 -163q0 -129 -57 -223q-63 -106 -174 -108h-4 q-110 0 -178 106q-61 96 -61 225z" />
<glyph unicode="p" horiz-adv-x="1176" d="M33 -246q33 -45 35 -47q30 -30 69 -30h2q27 0 68 8t67 8q27 0 68 -8t67 -8q55 0 105 77q-16 51 -44 72t-83 49v176q104 -74 245 -74q184 0 305 156q108 139 108 323v23q-6 162 -106 301t-217 141h-11q-78 0 -144 -27q-47 -25 -94 -47l-86 -41q-1 1 -1 2q0 11 52 39 q8 4 39 41q-8 10 -18.5 22.5t-49.5 12.5q-27 0 -67.5 -6.5t-67.5 -6.5t-67.5 6.5t-67.5 6.5q-41 0 -50 -11.5t-19 -23.5q18 -27 38 -43q23 -25 52 -39v-931q-29 -8 -78 -47q-33 -27 -49 -74zM387 315v266q0 84 68.5 140t158.5 56q102 0 168 -94q57 -86 57 -204 q0 -102 -45 -176q-51 -82 -137 -82q-41 0 -88 31q-25 16 -34 57t-32 51q-25 12 -48 12q-9 0 -17 -2q10 -20 -9.5 -42.5t-41.5 -12.5z" />
<glyph unicode="q" horiz-adv-x="1209" d="M98 483q6 162 105.5 300t217.5 140h11q78 0 145 -27q49 -23 96 -45q10 -4 55 -31q29 -16 31 -12q4 4 -51 41q-2 2 -37 43q6 10 16.5 23.5t49.5 13.5q27 0 67.5 -8.5t67.5 -8.5q29 0 69.5 8.5t67.5 8.5q39 0 48 -12.5t17 -24.5q-16 -29 -39 -45q-14 -14 -51 -39v-933h5 q48 0 83 -35q31 -31 31 -75q-27 12 -64 12q-41 0 -85 -58.5t-82 -58.5q-43 0 -78 27t-35 67v297q-106 -74 -245 -74q-186 2 -307 158q-109 142 -109 328v20zM305 483q0 -102 45 -176q51 -84 137 -84q272 0 272 156v304q-72 97 -227 97q-102 0 -168 -95q-59 -86 -59 -202z " />
<glyph unicode="r" horiz-adv-x="984" d="M84 872q0 -14 90 -56l27 -12v-700q-14 -4 -52 -32q-18 -14 -39 -52q8 -12 17.5 -24t48.5 -12q29 0 69.5 8t67.5 8t67.5 -8t67.5 -8q39 0 49 13t17 23q-16 31 -34 46.5t-54 37.5v538q33 0 63 11q12 4 32.5 27.5t39.5 23.5q65 0 65 -51q0 -25 -27.5 -61t-27.5 -62 q0 -53 43 -74q16 -8 41 -8q8 18 32 59q18 31 109 99q65 51 65 110q0 90 -45 156q-44 69 -114 69h-10q-45 -2 -80 -34.5t-70 -65.5q-20 -20 -41 -43q-31 -25 -59 -25q-27 0 -16 37q0 6 57 35t57 43q0 25 -41 24h-374q-41 0 -41 -40z" />
<glyph unicode="s" horiz-adv-x="1151" d="M108 201q2 -88 72 -144.5t164 -56.5q35 0 102.5 5t112.5 5q41 0 106 -5t108 -5q100 0 162.5 73t62.5 183q0 252 -225 343q-115 37 -229 76q-125 43 -125 92q0 37 50 41q68 6 131.5 6t121.5 -6l34 -45t101 -49q12 -1 24 -1q34 0 60 9q-10 16 -10 41q0 4 14.5 23.5 t14.5 29.5q0 43 -37 66q-18 12 -139 28q-135 20 -232 21q-392 0 -392 -142q0 -83 61 -134q41 -33 145 -72q119 -47 166 -76q63 -39 125 -75q65 -51 65 -119q0 -96 -170 -102h-10q-61 0 -108 22q-59 27 -60 80q0 47 -4 61q-8 29 -43 45q-68 33 -106 33q-29 0 -51 -12 q37 -33 37 -55q0 -37 -50.5 -89.5t-48.5 -94.5z" />
<glyph unicode="t" horiz-adv-x="763" d="M72 61q35 -47 34 -47q28 -30 67 -30h3q29 0 69.5 8t67.5 8t67.5 -8t67.5 -8q55 0 104 77q-16 49 -49 74q-23 18 -77 47v516q-1 26 22 26t29 -51q8 -63 75 -63q88 0 101 73q-33 25 -33 51q0 20 14.5 53t12.5 58q-2 33 -40 52.5t-83 19.5q-86 0 -129 -27l31 47v280 q-57 -45 -131 -92q-84 -53 -162 -86v-28q16 0 37 -13q31 -27 31 -45v-32l-29 2h-11q-59 0 -59 -43q0 -29 37 -62q18 -14 62 -41v-595q-37 -10 -80 -47q-35 -29 -49 -74z" />
<glyph unicode="u" d="M115 867q14 12 28 25q27 20 62 20h145q41 0 70.5 -28.5t29.5 -69.5v-558q0 -39 36 -61.5t83 -22.5q18 0 37 4q43 10 87.5 22t75.5 45v563q-14 6 -53 39q-20 18 -35 45q6 10 16.5 23.5t49.5 13.5q27 0 67.5 -8.5t67.5 -8.5q29 0 69.5 8.5t67.5 8.5q39 0 48 -12.5t17 -24.5 q-20 -37 -37.5 -50t-52.5 -34v-704q2 0 51 -39q23 -16 39 -45q-8 -12 -17 -24t-48 -12q-27 0 -68 8t-69 8q-27 0 -68 -8t-67 -8q-39 0 -49.5 13t-16.5 23q12 16 37 43q14 14 51 41v53l-61 -40q-55 -41 -112.5 -81t-126.5 -40q-241 0 -242 196v600h-7q-40 0 -66 22 q-28 24 -39 55z" />
<glyph unicode="v" horiz-adv-x="1172" d="M94 896q18 -33 32.5 -45t53.5 -37l374 -824h170l121 180q102 151 180 336.5t78 287.5q0 43 -17 63q-37 47 -100 58q-25 4 -127 3h-257q-25 0 -44.5 -18t-19.5 -43q0 -43 61.5 -64.5t61.5 -39.5q0 -33 -25 -51q18 -10 41 -10q74 0 90 63q8 35 -2 61h70q41 0 61 -44 q15 -33 16 -67q0 -12 -2 -24q-20 -174 -130 -376q-14 -29 -28.5 -55.5t-37.5 -24.5q-29 4 -119 201q-80 178 -159 354q-4 8 -4 18q0 35 26 57q12 16 39 41l-18 22.5t-49 12.5q-27 0 -68 -6t-67 -7q-27 0 -68 6.5t-67 6.5q-37 0 -47.5 -11.5t-18.5 -23.5z" />
<glyph unicode="w" horiz-adv-x="1522" d="M110 892q16 -29 39 -45q12 -14 52 -39l313 -828h169l125 329l123 -329h153l305 810q7 18 7 35q0 32 -23 63q-23 29 -82 29h-651q-61 0 -61 -62q0 -43 32.5 -65.5t32.5 -40.5q0 -25 -22 -53q18 -8 39 -9q74 0 94 66q6 37 -6 61h413q25 0 44.5 -21.5t19.5 -49.5 q0 -25 -13 -60l-141 -374l-172 466h-49l-188 -503l-194 508q-2 4 -2 9q0 25 44 60q14 16 39 43q-6 10 -16 23.5t-51 13.5q-29 0 -76 -8.5t-78 -8.5q-29 0 -75.5 8.5t-77.5 8.5q-39 0 -48 -12.5t-18 -24.5z" />
<glyph unicode="x" horiz-adv-x="1207" d="M74 33q0 -45 47 -45q31 0 78 5t77 5q25 0 66 -7t67 -7q39 0 49.5 13t18.5 23q-12 18 -37 48q-20 14 -43 29.5t-27 37.5q-2 35 35 76l123 137l186 -244q-18 -6 -51 -32q-20 -16 -39 -52q8 -12 17.5 -24t50.5 -12q31 0 80.5 8t82.5 8q31 0 81 -8t83 -8q39 0 49 13t16 23 q-10 18 -34 48q-16 14 -56 36l-327 403l229 248q55 59 55 90q0 12 -8 27q-22 40 -71 40q-16 0 -35 -4q-78 -25 -231 -53q-12 -2 -17.5 27.5t-17.5 29.5h-442q-27 0 -31 -40q-4 -18 12.5 -32.5t34 -26t49.5 -38.5l258 -333l-114 -119q-25 -25 -150 -127q-84 -68 -106 -124 q-8 -20 -8 -39zM450 806q0 25 21 25h22q10 0 19.5 -38t17.5 -38q37 6 121 20q20 4 43 11q23 4 28.5 -3.5t5.5 -13.5q0 -14 -86 -114q-26 -30 -51 -53l-125 163q-16 20 -16 41z" />
<glyph unicode="y" horiz-adv-x="1209" d="M98 872q-1 -4 -1 -7q0 -14 13 -25q17 -15 33 -30q20 -6 51 -35l350 -620v-237h-6q-45 0 -76 -30q-34 -31 -34 -80q27 12 63 12q41 0 85 -58.5t81 -58.5q45 0 78.5 27t33.5 67v363q25 20 70 73q86 117 149 246q23 47 117 255q31 70 31 95q0 23 -15 43q-30 39 -78 39 q-14 0 -30 -3q-119 -37 -311 -77q-18 -2 -20.5 39.5t-18.5 41.5h-534q-27 0 -31 -40zM466 765q-14 30 -14 46q0 19 19 20h22q10 0 19.5 -38t17.5 -38q31 0 135 8q139 12 194 17q13 1 23 1q52 0 65 -16q8 -10 8 -28l-28 -111q-27 -98 -107 -215q-73 -106 -97 -106h-1 q-25 2 -82 112q-96 186 -174 348z" />
<glyph unicode="z" horiz-adv-x="1245" d="M102 37q2 -63 223 -64q57 0 141 11q92 12 144 14h18q63 0 153 -12q103 -14 162 -13q68 0 120 35q50 34 50 90q0 88 -82 162q-80 72 -78 98q4 12 21 33q23 10 39 -6q-20 45 -76 45q-68 0 -80 -54q-4 -23 6.5 -47t10.5 -28q0 -10 -7 -19q-22 -30 -59 -30h-2h-170 q-25 0 -32 22q-6 18 12 39l395 462q51 59 51 82q0 12 -6 23q-14 31 -96 32q-256 6 -437.5 6t-289.5 -6q-84 -4 -84 -42q0 -39 80 -92.5t80 -96.5q0 -16 -14 -24q-27 -8 -37 14q4 -10 18 -31q22 -24 74 -24h4q29 0 56.5 23.5t27.5 52.5q0 49 -41 73.5t-41 32.5q2 16 27 16 q49 0 47 0q41 7 89 7q19 0 40 -1q59 -2 116 -6q37 0 37 -28q0 -6 -4 -11l-575 -677q-31 -36 -31 -61z" />
<glyph unicode="{" horiz-adv-x="707" d="M98 432v51q39 12 82 47t55 92q6 29 6 115v317q0 98 103 169q63 45 155 45h133v-96h-84q-55 0 -106 -39.5t-51 -148.5v-288q0 -76 -2 -94q-8 -47 -41 -82q-41 -43 -86 -62q45 -8 86 -41q33 -27 41 -69q2 -16 2 -86v-332q0 -100 69 -147q53 -37 94 -37h78v-100h-125 q-102 0 -178 57q-88 68 -88 166v344q0 96 -2 112q-10 55 -53 81t-88 26z" />
<glyph unicode="|" horiz-adv-x="621" d="M243 -90v1232q35 10 56 10q25 0 55 -10v-1232q-23 -10 -55 -10q-31 0 -56 10z" />
<glyph unicode="}" horiz-adv-x="707" d="M125 -254v-100h127q100 0 176 57q90 70 90 166v344q0 102 2 112q8 55 51 81t90 26v51q-88 27 -121 96q-23 51 -22 158v317q0 88 -90 159q-70 55 -170 55h-133v-96h86q53 0 104 -39.5t51 -148.5v-288q0 -96 23 -146q29 -63 108 -92q-47 -8 -88 -41q-33 -27 -41 -69 q-2 -16 -2 -86v-332q0 -100 -69 -147q-53 -37 -94 -37h-78z" />
<glyph unicode="~" horiz-adv-x="754" d="M88 528q-4 -72 22 -113q63 23 123 33q20 4 39 4q43 0 127 -26q78 -25 133 -21q47 4 83 41t38 86q2 74 -23 112q-57 -23 -123 -32q-20 -4 -41 -4q-41 0 -122.5 25.5t-136.5 21.5q-47 -4 -82 -41t-37 -86z" />
<glyph unicode="&#xa1;" horiz-adv-x="744" d="M102 43q29 43 70 100q59 63 80 162q10 90 20 182q10 141 23 282q16 153 69 154q53 0 70 -154q12 -141 22 -282q10 -92 21 -182q18 -96 77 -162q18 -31 66 -100q-76 -51 -121 -51q-27 0 -67.5 8t-67.5 8q-29 0 -69.5 -8t-67.5 -8q-55 0 -125 51zM278 1152q0 -113 86 -113 q84 0 84 113q0 45 -22.5 76.5t-61.5 31.5t-62.5 -32.5t-23.5 -75.5z" />
<glyph unicode="&#xa2;" horiz-adv-x="1133" d="M102 616q0 -182 64 -305q76 -149 221 -149q72 0 127 4v-133h85v137q82 -8 146 -8q219 0 213 204q-2 104 -123 141q-10 -27 -27 -47q-51 -63 -209 -55v595q119 -4 119 -77q0 -78 -43 -109q6 -20 14.5 -38.5t47.5 -22.5q174 -14 173 186q0 151 -311 174v96h-85v-96 q-178 -25 -295 -169t-117 -328zM268 712q0 108 65.5 192.5t180.5 98.5v-588q-104 27 -175 110t-71 187z" />
<glyph unicode="&#xa3;" horiz-adv-x="1305" d="M82 51q4 80 71.5 131t132.5 100q37 37 37 76v194q47 6 117 -18q63 -23 108 -23v-83l41 -39q45 -43 45 -66t-24.5 -36t-46.5 -25q-59 -33 -142 -66q-96 -35 -139 -57q-31 -14 -39 -20q-16 -12 -18 -31q-2 -27 35 -29q-12 0 67 2q51 0 129 37q68 33 137 66q127 55 133 57 q65 20 164 20q47 0 57 31q4 12 -20 55q-31 51 -61.5 104.5t-30.5 106.5q0 29 31.5 46.5t33.5 35.5q4 35 -10 61q39 -6 61.5 -19t43 -28.5t24.5 -74.5q2 -31 -5 -72t-7 -59q0 -45 26 -101q20 -43 94 -131q57 -68 60 -114q2 -61 -99 -100q-88 -33 -198 -33q-61 0 -159.5 25.5 t-161.5 25.5q-55 0 -140 -25.5t-136 -25.5q-217 0 -211 102zM149 661q-4 -72 23 -113q63 23 123 33q20 4 38 4q43 0 127 -26q78 -25 133 -21q47 4 83 41t38 86q2 74 -22 112q-57 -23 -123 -32q-20 -4 -41 -4q-41 0 -123 25.5t-137 21.5q-47 -4 -82 -41t-37 -86zM174 1187 q18 23 37 47q29 31 67 30h313q39 0 68 -30q18 -25 37 -47q-16 -49 -49 -74q-53 -41 -99 -47v-301q-61 1 -100 15q-72 27 -125 28v258q-53 8 -100 47q-35 29 -49 74z" />
<glyph unicode="&#xa8;" horiz-adv-x="759" d="M127 1154q0 -41 26.5 -70.5t73.5 -29.5t73.5 29.5t26.5 70.5t-26.5 70.5t-73.5 29.5t-73.5 -29.5t-26.5 -70.5zM499 1154q0 -41 26.5 -70.5t73.5 -29.5t74 29.5t27 70.5t-27 70.5t-74 29.5t-73.5 -29.5t-26.5 -70.5z" />
<glyph unicode="&#xa9;" horiz-adv-x="1049" d="M106 636q0 145 90 244q98 110 264 110t264 -110q88 -98 88 -244q0 -143 -88 -241q-98 -110 -264 -111q-166 0 -264 111q-90 98 -90 241zM160 636q0 -121 75 -206q84 -94 225 -94t225 94q76 86 76 206q0 123 -76 209q-84 94 -225 94t-225 -94q-76 -86 -75 -209zM278 647 q0 74 52.5 129t125.5 55q45 0 81 -20.5t36 -57.5q0 -76 -84 -76q-53 0 -53 49q0 20 -15 21q-4 0 -10 -4t-12 -4q-18 0 -18 20t30 21q20 0 34.5 -17.5t25.5 -17.5q29 0 28 32q0 29 -47 29q-61 0 -93 -43t-32 -106q0 -55 39 -95t94 -40q60 0 103 51q31 -14 26 -43 q-14 -92 -133 -92q-78 0 -129 65q-49 59 -49 144z" />
<glyph unicode="&#xaa;" horiz-adv-x="654" d="M92 583q0 59 98 121l98 63q-43 4 -87 10q-86 14 -86 72q0 45 40 59q23 8 80 9q16 0 40 -4.5t38 -4.5t36.5 4.5t39.5 4.5q55 0 98 -28t43 -75v-276l45 -41q-45 -41 -84 -41q-23 0 -58.5 3t-58.5 3q-25 0 -63.5 -3t-62.5 -3q-61 0 -108.5 35t-47.5 92zM113 274q0 30 10 55 h401q10 -27 10 -55q0 -33 -10 -53h-401q-10 20 -10 53zM221 841q0 -27 63 -27q12 0 43 5.5t43 5.5q37 0 37 -29q0 -25 -90 -72t-90 -94q0 -59 82 -59q76 0 108 41v204q0 33 -36 41q-14 4 -68 4q-4 0 -41 2q-25 2 -35 0q-16 -6 -16 -22z" />
<glyph unicode="&#xab;" horiz-adv-x="1718" d="M61 473q0 45 27 77l849 414q14 -31 14 -78q0 -45 -14 -78l-587 -274q-65 -31 -66 -61q0 -25 66 -58l587 -292q12 -25 14 -66q4 -47 -14 -90l-849 434q-27 35 -27 72zM655 473q0 45 26 77l849 414q14 -31 15 -78q0 -45 -15 -78l-587 -274q-65 -31 -65 -61q0 -25 65 -58 l587 -292q12 -25 15 -66q4 -47 -15 -90l-849 434q-27 35 -26 72z" />
<glyph unicode="&#xad;" horiz-adv-x="621" d="M92 387q0 30 10 55h401q10 -27 11 -55q0 -33 -11 -54h-401q-10 20 -10 54z" />
<glyph unicode="&#xae;" horiz-adv-x="1049" d="M106 636q0 145 90 244q98 110 264 110t264 -110q88 -98 88 -244q0 -143 -88 -241q-98 -110 -264 -111q-166 0 -264 111q-90 98 -90 241zM160 636q0 -121 75 -206q84 -94 225 -94t225 94q76 86 76 206q0 123 -76 209q-84 94 -225 94t-225 -94q-76 -86 -75 -209zM264 808 q0 23 51 23h219q20 0 38.5 -16.5t18.5 -34.5q0 -16 -67 -66l-15 -10l15 -10q18 -8 47 -37q10 -20 17 -73.5t22 -80.5q2 -8 16 -16l25 -14q-8 -18 -29 -23q-6 0 -15.5 4t-13.5 4q-6 0 -16 -4t-16 -4q-29 0 -33 12q-10 20 -12 56q-2 47 -5 61q-16 72 -94 113q-29 14 -110 55 q-43 23 -43 61zM284 477q12 -25 33 -25q10 0 23.5 3t23.5 3q8 0 21.5 -3t23.5 -3q18 0 31 25q-4 8 -12 20q-18 12 -31 14v185l-68 32v-217q-12 -2 -30 -14q-6 -6 -15 -20zM315 784q-4 -16 10 -21q23 -12 82 -45q25 -6 43 -2q84 18 78 59q0 20 -29 21h-80q-22 0 -22 -31v-33 l-68 33v19q0 8 -6 10q2 0 -8 -10z" />
<glyph unicode="&#xb0;" horiz-adv-x="654" d="M59 1086q0 -72 43 -120q49 -55 133 -56q84 0 133 56q43 49 43 120q0 74 -43 123q-49 55 -133 55t-130 -52t-46 -126zM96 1086q0 57 37 98.5t102 41.5t105 -43q33 -39 32 -97q0 -55 -32 -94q-39 -43 -105 -43q-65 0 -102 41t-37 96z" />
<glyph unicode="&#xb1;" horiz-adv-x="664" d="M92 203q0 30 10 55h401q10 -27 11 -55q0 -33 -11 -54h-401q-10 20 -10 54zM92 509q0 31 10 56h144v147q35 10 57 10q23 0 53 -10v-147h147q10 -27 11 -56q0 -33 -11 -53h-147v-147q-31 -10 -53 -10q-23 0 -57 10v147h-144q-10 20 -10 53z" />
<glyph unicode="&#xb4;" horiz-adv-x="466" d="M70 964q0 -8 38 -9q141 0 230 84q43 41 43 94q0 35 -25 58.5t-59 23.5q-35 0 -65.5 -27.5t-30.5 -62.5q0 -23 14 -43q6 -8 -7 -24t-138 -94z" />
<glyph unicode="&#xb6;" horiz-adv-x="1737" d="M45 841q0 143 139 278q147 141 321 141h982q96 0 187 -61q-39 -65 -101.5 -111.5t-130.5 -64.5v-1023q70 -18 132.5 -64t101.5 -112q-102 -70 -187 -70q-74 0 -105.5 8.5t-53.5 8.5q-23 0 -53.5 -8.5t-104.5 -8.5q-41 0 -75 11q-35 -10 -74 -11q-74 0 -105.5 8.5 t-54.5 8.5t-53 -8.5t-104 -8.5q-84 0 -186 70q39 65 101 111.5t130 64.5v548l16 23q29 39 29 92q0 51 -35 106l-10 17v227q0 121 -82 135q-49 8 -96 4q-55 -4 -70 -4q-51 2 -133 -68q-94 -82 -94 -168q0 -104 35 -163q47 -78 149 -72q110 8 103 158q-2 27 19.5 46t51.5 21 q29 6 55 -14q-20 0 -30 -23q-6 -25 18 -40q100 -72 98 -162q-2 -98 -110.5 -171t-234.5 -73q-385 0 -385 422zM976 0q68 -16 121 -57q55 39 120 57v1023q-72 18 -131 63l-8 7l-14 -13q-43 -35 -88 -57v-1023z" />
<glyph unicode="&#xb7;" horiz-adv-x="1084" d="M119 162q-6 88 57 163q10 12 49 29q31 14 37 37q2 21 0 39q18 -2 36.5 -17.5t18.5 -31.5q0 -12 -11 -36t-11 -38q0 -23 18 -49.5t41 -26.5h147q78 0 78 176v514q0 31 -59.5 56.5t-57.5 45.5q6 33 47 39q68 10 219 33q16 2 17 30q0 29 -37 33q-149 33 -307 0 q-47 -10 -47 -37q0 -18 41 -44.5t41 -86.5q0 -61 -72 -108q-63 -41 -137 -21q49 49 49 90q0 47 -68.5 102.5t-68.5 98.5q0 92 166 114q215 29 427 0q282 -39 277 -110q-4 -43 -58 -59q-45 -16 -92 -31q-55 -31 -55 -66v-722q88 -41 94 -94q8 -72 -99 -146.5t-220 -74.5h-256 q-82 0 -140 57.5t-64 141.5z" />
<glyph unicode="&#xb8;" horiz-adv-x="491" d="M78 -252q-2 -31 17.5 -54t49.5 -23q14 0 35 2t33 2q14 0 36.5 -2t36.5 -2q51 0 81 45t28 102q-2 59 -52 96t-118 37q-23 0 -45 -8q-4 8 -4 18q-2 27 0 55l-47 -4q-4 -20 0 -43q0 -8 4 -28q-8 -4 -12 -11q-27 -20 -27 -49q0 -20 31 -20q47 0 59 39q2 6 2 10h21 q27 0 47 -10q51 -25 51 -70q0 -74 -41 -73q-10 0 -24.5 3t-22.5 3t-20.5 -3t-22.5 -3q-16 0 -21 16q-4 18 11 24q-16 12 -33 13q-47 0 -53 -62zM119 -113q0 -2 12 3q4 2 4 16q-6 0 -13 -7t-3 -12z" />
<glyph unicode="&#xba;" horiz-adv-x="685" d="M113 274q0 30 10 55h401q10 -27 10 -55q0 -33 -10 -53h-401q-10 20 -10 53zM113 667q0 -76 45 -145.5t100 -69.5q10 0 38.5 4t47.5 4q16 0 43.5 -4t40.5 -4q53 0 99 69.5t46 145.5q0 106 -65.5 181t-163.5 75q-100 0 -165.5 -74t-65.5 -182zM221 753q0 49 36 82.5 t87 31.5q47 2 80.5 -32.5t33.5 -81.5q0 -63 -28 -111q-31 -53 -86 -57q-57 2 -90 53t-33 115z" />
<glyph unicode="&#xbb;" horiz-adv-x="1820" d="M160 57q2 23 14 66l585 292q68 35 68 58q0 31 -68 61l-585 274q-14 33 -14 78q0 47 14 78l849 -414q27 -32 27 -77q0 -37 -27 -72l-849 -434q-18 47 -14 90zM753 57q2 23 14 66l585 292q68 35 68 58q0 31 -68 61l-585 274q-14 33 -14 78q0 47 14 78l849 -414 q27 -32 27 -77q0 -37 -27 -72l-849 -434q-18 47 -14 90z" />
<glyph unicode="&#xbf;" horiz-adv-x="1039" d="M119 376q0 -358 423 -358q174 0 295 68q141 80 141 221q0 119 -85 201.5t-206 82.5q-78 0 -139 -51t-61 -125q0 -14 11 -40.5t11 -36.5q0 -12 -9 -18.5t-23 -12.5q37 -31 71 -31q31 0 69 45t70 43q119 -10 119 -96q0 -72 -60.5 -118t-139.5 -46q-92 0 -155.5 82 t-63.5 180q0 119 63 207q59 65 121.5 131.5t62.5 136.5q0 57 -36.5 100t-90.5 43q-57 0 -104 -24q-53 -29 -53 -68q0 -10 -14 -14t-23 8q4 -23 23 -39q12 -12 30 -12q10 0 32.5 6t33.5 6q55 0 55 -39t-96 -100q-135 -84 -176 -125q-96 -90 -96 -207zM417 1189 q0 -113 84 -113t84 113q0 110 -84 110q-39 0 -61.5 -32.5t-22.5 -77.5z" />
<glyph unicode="&#xc0;" horiz-adv-x="1319" d="M63 219q0 -96 37 -162q43 -74 121 -73q104 0 164 155q25 65 14 137q-29 -25 -66 -20q-78 8 -77 123q0 127 100 192q166 106 706 444q106 68 100 147q-4 43 -38 72.5t-79 29.5h-824q-43 0 -77 -24.5t-31 -63.5q2 -51 57 -90q98 -70 104 -75q12 -14 41 -41q41 16 53 51 q20 53 -10 90q-4 4 -33 16q-20 8 -18 25q10 25 37 24h118l-261 -552q-78 -166 -91 -196q-47 -117 -47 -209zM340 677l86 184q25 59 88 182q53 88 90 84q63 -6 83 -114l19 -94l172 106l-19 76q-6 23 11.5 42t41.5 21q65 4 66 -57q0 -47 -160 -143q-149 -88 -298 -174z M516 1522q0 35 24.5 58.5t58.5 23.5q35 0 66 -27.5t31 -62.5q0 -23 -15 -43q-4 -6 7.5 -22.5t138.5 -96.5q0 -8 -39 -8q-141 0 -229 84q-43 41 -43 94zM712 61q49 -78 104 -77q27 0 68 8t67 8q27 0 68 -8t67 -8q41 0 72 30q2 2 35 47q-14 45 -49 74q-43 35 -80 47l-158 714 l-178 -110l111 -604q-31 -10 -80 -47q-31 -23 -47 -74z" />
<glyph unicode="&#xc1;" horiz-adv-x="1319" d="M63 219q0 -96 37 -162q43 -74 121 -73q104 0 164 155q25 65 14 137q-29 -25 -66 -20q-78 8 -77 123q0 127 100 192q166 106 706 444q106 68 100 147q-4 43 -38 72.5t-79 29.5h-824q-43 0 -77 -24.5t-31 -63.5q2 -51 57 -90q98 -70 104 -75q12 -14 41 -41q41 16 53 51 q20 53 -10 90q-4 4 -33 16q-20 8 -18 25q10 25 37 24h118l-261 -552q-78 -166 -91 -196q-47 -117 -47 -209zM340 677l86 184q25 59 88 182q53 88 90 84q63 -6 83 -114l19 -94l172 106l-19 76q-6 23 11.5 42t41.5 21q65 4 66 -57q0 -47 -160 -143q-149 -88 -298 -174z M509 1352q0 -8 39 -8q141 0 229 84q43 41 43 94q0 35 -24.5 58.5t-58.5 23.5q-35 0 -66 -27.5t-31 -62.5q0 -23 15 -43q6 -8 -7.5 -24.5t-138.5 -94.5zM712 61q49 -78 104 -77q27 0 68 8t67 8q27 0 68 -8t67 -8q41 0 72 30q2 2 35 47q-14 45 -49 74q-43 35 -80 47l-158 714 l-178 -110l111 -604q-31 -10 -80 -47q-31 -23 -47 -74z" />
<glyph unicode="&#xc2;" horiz-adv-x="1319" d="M63 219q0 -96 37 -162q43 -74 121 -73q104 0 164 155q25 65 14 137q-29 -25 -66 -20q-78 8 -77 123q0 127 100 192q166 106 706 444q106 68 100 147q-4 43 -38 72.5t-79 29.5h-824q-43 0 -77 -24.5t-31 -63.5q2 -51 57 -90q98 -70 104 -75q12 -14 41 -41q41 16 53 51 q20 53 -10 90q-4 4 -33 16q-20 8 -18 25q10 25 37 24h118l-261 -552q-78 -166 -91 -196q-47 -117 -47 -209zM340 677l86 184q25 59 88 182q53 88 90 84q63 -6 83 -114l19 -94l172 106l-19 76q-6 23 11.5 42t41.5 21q65 4 66 -57q0 -47 -160 -143q-149 -88 -298 -174z M469 1328h102l110 141l109 -141h102l-160 284h-102zM712 61q49 -78 104 -77q27 0 68 8t67 8q27 0 68 -8t67 -8q41 0 72 30q2 2 35 47q-14 45 -49 74q-43 35 -80 47l-158 714l-178 -110l111 -604q-31 -10 -80 -47q-31 -23 -47 -74z" />
<glyph unicode="&#xc3;" horiz-adv-x="1319" d="M63 219q0 -96 37 -162q43 -74 121 -73q104 0 164 155q25 65 14 137q-29 -25 -66 -20q-78 8 -77 123q0 127 100 192q166 106 706 444q106 68 100 147q-4 43 -38 72.5t-79 29.5h-824q-43 0 -77 -24.5t-31 -63.5q2 -51 57 -90q98 -70 104 -75q12 -14 41 -41q41 16 53 51 q20 53 -10 90q-4 4 -33 16q-20 8 -18 25q10 25 37 24h118l-261 -552q-78 -166 -91 -196q-47 -117 -47 -209zM340 677l86 184q25 59 88 182q53 88 90 84q63 -6 83 -114l19 -94l172 106l-19 76q-6 23 11.5 42t41.5 21q65 4 66 -57q0 -47 -160 -143q-149 -88 -298 -174z M366 1479q-2 -74 23 -112q70 25 122 32q20 4 39 5q43 0 127 -27q78 -25 133 -21q47 4 83 41t38 86q2 74 -23 113q-57 -23 -122 -33q-20 -4 -39 -4q-43 0 -124 25.5t-136 21.5q-47 -4 -83 -41t-38 -86zM712 61q49 -78 104 -77q27 0 68 8t67 8q27 0 68 -8t67 -8q41 0 72 30 q2 2 35 47q-14 45 -49 74q-43 35 -80 47l-158 714l-178 -110l111 -604q-31 -10 -80 -47q-31 -23 -47 -74z" />
<glyph unicode="&#xc4;" horiz-adv-x="1319" d="M63 219q0 -96 37 -162q43 -74 121 -73q104 0 164 155q25 65 14 137q-29 -25 -66 -20q-78 8 -77 123q0 127 100 192q166 106 706 444q106 68 100 147q-4 43 -38 72.5t-79 29.5h-824q-43 0 -77 -24.5t-31 -63.5q2 -51 57 -90q98 -70 104 -75q12 -14 41 -41q41 16 53 51 q20 53 -10 90q-4 4 -33 16q-20 8 -18 25q10 25 37 24h118l-261 -552q-78 -166 -91 -196q-47 -117 -47 -209zM340 677l86 184q25 59 88 182q53 88 90 84q63 -6 83 -114l19 -94l172 106l-19 76q-6 23 11.5 42t41.5 21q65 4 66 -57q0 -47 -160 -143q-149 -88 -298 -174z M393 1512q0 -41 26.5 -70.5t73.5 -29.5t73.5 29.5t26.5 70.5t-26.5 70.5t-73.5 29.5t-73.5 -29.5t-26.5 -70.5zM712 61q49 -78 104 -77q27 0 68 8t67 8q27 0 68 -8t67 -8q41 0 72 30q2 2 35 47q-14 45 -49 74q-43 35 -80 47l-158 714l-178 -110l111 -604q-31 -10 -80 -47 q-31 -23 -47 -74zM765 1512q0 -41 26.5 -70.5t73.5 -29.5t74 29.5t27 70.5t-27 70.5t-74 29.5t-73.5 -29.5t-26.5 -70.5z" />
<glyph unicode="&#xc5;" horiz-adv-x="1317" d="M63 219q0 -96 37 -162q43 -74 121 -73q104 0 164 155q25 65 14 137q-29 -25 -66 -20q-78 8 -77 123q0 127 100 192q166 106 706 444q106 68 100 147q-4 43 -38 72.5t-79 29.5h-257q30 37 30 82q0 63 -51 99t-131 36q-74 0 -122 -35q-55 -39 -56 -100q0 -49 35 -82h-272 q-43 0 -77 -24.5t-31 -63.5q2 -51 57 -90q98 -70 104 -75q12 -14 41 -41q41 16 53 51q20 53 -10 90q-4 4 -33 16q-20 8 -18 25q10 25 37 24h118l-261 -552q-78 -166 -91 -196q-47 -117 -47 -209zM340 677l86 184q25 59 88 182q53 88 90 84q63 -6 83 -114l19 -94l172 106 l-19 76q-6 23 11.5 42t41.5 21q65 4 66 -57q0 -47 -160 -143q-149 -88 -298 -174zM528 1348q0 39 32.5 61.5t79.5 22.5q113 0 113 -84t-113 -84q-45 0 -78.5 22.5t-33.5 61.5zM712 61q49 -78 104 -77q27 0 68 8t67 8q27 0 68 -8t67 -8q41 0 72 30q2 2 35 47q-14 45 -49 74 q-43 35 -80 47l-158 714l-178 -110l111 -604q-31 -10 -80 -47q-31 -23 -47 -74z" />
<glyph unicode="&#xc6;" horiz-adv-x="1790" d="M68 272q0 74 43.5 167t89.5 185l261 552h-118q-27 0 -37 -24q-2 -16 18 -25q29 -12 33 -16q31 -37 10 -90q-12 -35 -53 -51l-41 41q-6 6 -104 75q-55 39 -57 90q-2 39 30.5 62.5t77.5 25.5q264 12 561 13q368 0 667 -17q76 -4 139 -30q72 -29 75 -66q6 -57 -90 -112 q-78 -45 -339 -193q-37 -20 -37 -34q0 -23 29 -25q16 0 55 15.5t65 15.5q184 -2 180 -146q-2 -41 -20 -71q4 12 -6 30q-10 10 -37 17q-16 2 -33 2q-43 0 -127 -40t-147 -40q-53 0 -87 43t-38 102q-6 86 96 162q68 47 221 153q39 29 39 68t-39 37q-63 8 -212 0 q-82 -14 -82 -135v-162l-11 -14q-33 -45 -32 -109q0 -47 28 -92l15 -22v-274q0 -53 37.5 -82t91.5 -27h382q29 0 50.5 32t13.5 62q39 -18 57 -37q37 -41 39 -104q2 -98 -101 -153q-88 -47 -210 -47q-53 0 -132 12t-130 12q-47 0 -119.5 -13t-142.5 -13q-129 0 -295 77 q39 65 100.5 111.5t133.5 64.5v645l-473 -309q-100 -65 -100 -192q0 -115 77 -123q37 -4 66 20q10 -72 -14 -137q-59 -155 -164 -155q-153 0 -153 288zM340 677l489 313v80q0 43 -92 57q-63 10 -133 0q-43 -6 -90 -84q-12 -20 -88 -182z" />
<glyph unicode="&#xc7;" horiz-adv-x="1307" d="M149 675q0 252 173 436t421 184q153 0 264 -63q129 -74 129 -203q0 -117 -83 -185.5t-198 -68.5q-74 0 -127 50.5t-53 121.5q0 65 -41 66q-16 0 -40.5 -15.5t-41.5 -15.5q-61 0 -61 72q0 68 102 67q70 0 117 -59t88 -59q92 0 92 108q0 96 -153 96q-209 0 -324 -151 q-100 -135 -100 -344q0 -188 130 -322t314 -134q217 2 348 174q90 -90 82 -148q-23 -151 -158 -233q-119 -76 -286 -76q-260 0 -432 217q-162 205 -162 485zM667 -305q-2 -31 18.5 -55.5t51.5 -24.5q14 0 34.5 3t32.5 3t35.5 -3t38.5 -3q51 0 79.5 46t26.5 104q-2 59 -52 96 t-116 37q-23 0 -47 -8q-2 8 -2 18q-2 25 0 53l-49 -2q-2 -33 0 -43q0 2 6 -29q-4 -2 -12 -10q-27 -20 -27 -49q0 -20 31 -20q47 0 59 39q2 4 2 10h21q27 0 47 -10q51 -27 51 -70q0 -74 -41 -74q-10 0 -24.5 2t-22.5 2t-20.5 -2t-22.5 -2q-18 0 -20 15q-4 18 10 26 q-16 12 -33 13q-49 0 -55 -62zM708 -166q2 -2 14 2q4 3 4 15q-27 0 -18 -17z" />
<glyph unicode="&#xc8;" horiz-adv-x="1411" d="M141 59q39 65 101.5 111.5t131.5 64.5v788q-41 20 -88 57t-85 84q45 47 92 70q39 18 86 24q143 18 272 19q61 0 341 -17q76 -4 139 -30q72 -29 76 -66q6 -57 -90 -112q-135 -80 -340 -193q-35 -20 -34 -34q0 -4 2 -9q6 -16 24 -16q16 0 55 15.5t66 15.5q184 -2 182 -146 q0 -35 -20 -71q2 16 -9 30q-6 8 -34 17q-16 2 -31 2q-47 0 -130 -40t-146 -40q-53 0 -88 43t-39 102q-6 84 98 162q68 47 219 153q39 29 39 70q0 37 -39 35q-63 6 -211 0q-82 -14 -82 -135v-162l-10 -14q-35 -49 -35 -109q0 -53 29 -92l16 -22v-274q0 -53 38 -82t89 -27h385 q33 0 51.5 32t11.5 62q39 -20 56 -37q37 -41 38 -104q2 -98 -100 -153q-86 -47 -208 -47q-53 0 -133 12t-131 12q-47 0 -120 -13t-140 -13q-133 0 -295 77zM618 1522q0 35 24.5 58.5t59.5 23.5t65.5 -27.5t30.5 -62.5q0 -23 -14 -43q-4 -6 7 -22.5t138 -96.5q0 -8 -39 -8 q-141 0 -229 84q-43 41 -43 94z" />
<glyph unicode="&#xc9;" horiz-adv-x="1411" d="M141 59q39 65 101.5 111.5t131.5 64.5v788q-41 20 -88 57t-85 84q45 47 92 70q39 18 86 24q143 18 272 19q61 0 341 -17q76 -4 139 -30q72 -29 76 -66q6 -57 -90 -112q-135 -80 -340 -193q-35 -20 -34 -34q0 -4 2 -9q6 -16 24 -16q16 0 55 15.5t66 15.5q184 -2 182 -146 q0 -35 -20 -71q2 16 -9 30q-6 8 -34 17q-16 2 -31 2q-47 0 -130 -40t-146 -40q-53 0 -88 43t-39 102q-6 84 98 162q68 47 219 153q39 29 39 70q0 37 -39 35q-63 6 -211 0q-82 -14 -82 -135v-162l-10 -14q-35 -49 -35 -109q0 -53 29 -92l16 -22v-274q0 -53 38 -82t89 -27h385 q33 0 51.5 32t11.5 62q39 -20 56 -37q37 -41 38 -104q2 -98 -100 -153q-86 -47 -208 -47q-53 0 -133 12t-131 12q-47 0 -120 -13t-140 -13q-133 0 -295 77zM571 1352q0 -8 39 -8q141 0 229 84q43 41 43 94q0 35 -24.5 58.5t-59.5 23.5t-65.5 -27.5t-30.5 -62.5q0 -23 14 -43 q6 -8 -7 -24.5t-138 -94.5z" />
<glyph unicode="&#xca;" horiz-adv-x="1411" d="M141 59q39 65 101.5 111.5t131.5 64.5v788q-41 20 -88 57t-85 84q45 47 92 70q39 18 86 24q143 18 272 19q61 0 341 -17q76 -4 139 -30q72 -29 76 -66q6 -57 -90 -112q-135 -80 -340 -193q-35 -20 -34 -34q0 -4 2 -9q6 -16 24 -16q16 0 55 15.5t66 15.5q184 -2 182 -146 q0 -35 -20 -71q2 16 -9 30q-6 8 -34 17q-16 2 -31 2q-47 0 -130 -40t-146 -40q-53 0 -88 43t-39 102q-6 84 98 162q68 47 219 153q39 29 39 70q0 37 -39 35q-63 6 -211 0q-82 -14 -82 -135v-162l-10 -14q-35 -49 -35 -109q0 -53 29 -92l16 -22v-274q0 -53 38 -82t89 -27h385 q33 0 51.5 32t11.5 62q39 -20 56 -37q37 -41 38 -104q2 -98 -100 -153q-86 -47 -208 -47q-53 0 -133 12t-131 12q-47 0 -120 -13t-140 -13q-133 0 -295 77zM550 1328h103l110 141l109 -141h102l-160 284h-102z" />
<glyph unicode="&#xcb;" horiz-adv-x="1411" d="M141 59q39 65 101.5 111.5t131.5 64.5v788q-41 20 -88 57t-85 84q45 47 92 70q39 18 86 24q143 18 272 19q61 0 341 -17q76 -4 139 -30q72 -29 76 -66q6 -57 -90 -112q-135 -80 -340 -193q-35 -20 -34 -34q0 -4 2 -9q6 -16 24 -16q16 0 55 15.5t66 15.5q184 -2 182 -146 q0 -35 -20 -71q2 16 -9 30q-6 8 -34 17q-16 2 -31 2q-47 0 -130 -40t-146 -40q-53 0 -88 43t-39 102q-6 84 98 162q68 47 219 153q39 29 39 70q0 37 -39 35q-63 6 -211 0q-82 -14 -82 -135v-162l-10 -14q-35 -49 -35 -109q0 -53 29 -92l16 -22v-274q0 -53 38 -82t89 -27h385 q33 0 51.5 32t11.5 62q39 -20 56 -37q37 -41 38 -104q2 -98 -100 -153q-86 -47 -208 -47q-53 0 -133 12t-131 12q-47 0 -120 -13t-140 -13q-133 0 -295 77zM424 1512q0 -41 26.5 -70.5t73.5 -29.5t73.5 29.5t26.5 70.5t-26.5 70.5t-73.5 29.5t-73.5 -29.5t-26.5 -70.5z M796 1512q0 -41 26.5 -70.5t73.5 -29.5t73.5 29.5t26.5 70.5t-26.5 70.5t-73.5 29.5t-73.5 -29.5t-26.5 -70.5z" />
<glyph unicode="&#xcc;" horiz-adv-x="847" d="M39 1183q-2 94 172 94q31 0 79 -8.5t80 -8.5q39 0 96.5 8.5t94.5 8.5q41 0 69 -31q16 -23 35 -47q-16 -49 -49 -74q-70 -53 -129 -55v-149l-225 114v62q0 29 -27 28q-16 0 -20 -30q-12 -47 33 -72q14 -8 331 -172q29 -14 57.5 -30.5t36.5 -43.5q6 -18 6 -38 q0 -59 -47 -78q-14 2 -43 -6q-14 -12 -18 -31q-35 29 -29 78q0 8 13.5 20t13.5 23q0 27 -19 39q-98 49 -366 188q-141 76 -145 211zM113 61q35 -47 34 -47q29 -31 70 -30q31 0 79 8t78 8q31 0 78 -8t78 -8q55 0 104 77q-16 49 -49 74q-53 41 -98 47v618l-225 117v-735 q-53 -8 -100 -47q-35 -29 -49 -74zM260 1522q0 35 24.5 58.5t59.5 23.5t65.5 -27.5t30.5 -62.5q0 -23 -14 -43q-4 -6 7 -22.5t138 -96.5q0 -8 -39 -8q-141 0 -229 84q-43 41 -43 94z" />
<glyph unicode="&#xcd;" horiz-adv-x="847" d="M39 1183q-2 94 172 94q31 0 79 -8.5t80 -8.5q39 0 96.5 8.5t94.5 8.5q41 0 69 -31q16 -23 35 -47q-16 -49 -49 -74q-70 -53 -129 -55v-149l-225 114v62q0 29 -27 28q-16 0 -20 -30q-12 -47 33 -72q14 -8 331 -172q29 -14 57.5 -30.5t36.5 -43.5q6 -18 6 -38 q0 -59 -47 -78q-14 2 -43 -6q-14 -12 -18 -31q-35 29 -29 78q0 8 13.5 20t13.5 23q0 27 -19 39q-98 49 -366 188q-141 76 -145 211zM113 61q35 -47 34 -47q29 -31 70 -30q31 0 79 8t78 8q31 0 78 -8t78 -8q55 0 104 77q-16 49 -49 74q-53 41 -98 47v618l-225 117v-735 q-53 -8 -100 -47q-35 -29 -49 -74zM229 1352q0 -8 39 -8q141 0 229 84q41 41 41 92q0 39 -26.5 61.5t-57.5 22.5q-35 0 -64.5 -27.5t-29.5 -62.5q0 -20 14 -43q2 -6 -8 -22q-14 -23 -71 -56q-31 -19 -64 -37q-2 -2 -2 -4z" />
<glyph unicode="&#xce;" horiz-adv-x="847" d="M39 1183q-2 94 172 94q31 0 79 -8.5t80 -8.5q39 0 96.5 8.5t94.5 8.5q41 0 69 -31q16 -23 35 -47q-16 -49 -49 -74q-70 -53 -129 -55v-149l-225 114v62q0 29 -27 28q-16 0 -20 -30q-12 -47 33 -72q14 -8 331 -172q29 -14 57.5 -30.5t36.5 -43.5q6 -18 6 -38 q0 -59 -47 -78q-14 2 -43 -6q-14 -12 -18 -31q-35 29 -29 78q0 8 13.5 20t13.5 23q0 27 -19 39q-98 49 -366 188q-141 76 -145 211zM113 61q35 -47 34 -47q29 -31 70 -30q31 0 79 8t78 8q31 0 78 -8t78 -8q55 0 104 77q-16 49 -49 74q-53 41 -98 47v618l-225 117v-735 q-53 -8 -100 -47q-35 -29 -49 -74zM182 1318h102l111 141l108 -141h103l-160 284h-102z" />
<glyph unicode="&#xcf;" horiz-adv-x="847" d="M39 1183q-2 94 172 94q31 0 79 -8.5t80 -8.5q39 0 96.5 8.5t94.5 8.5q41 0 69 -31q16 -23 35 -47q-16 -49 -49 -74q-70 -53 -129 -55v-149l-225 114v62q0 29 -27 28q-16 0 -20 -30q-12 -47 33 -72q14 -8 331 -172q29 -14 57.5 -30.5t36.5 -43.5q6 -18 6 -38 q0 -59 -47 -78q-14 2 -43 -6q-14 -12 -18 -31q-35 29 -29 78q0 8 13.5 20t13.5 23q0 27 -19 39q-98 49 -366 188q-141 76 -145 211zM113 61q35 -47 34 -47q29 -31 70 -30q31 0 79 8t78 8q31 0 78 -8t78 -8q55 0 104 77q-16 49 -49 74q-53 41 -98 47v618l-225 117v-735 q-53 -8 -100 -47q-35 -29 -49 -74zM117 1512q0 -41 26.5 -70.5t73.5 -29.5t73.5 29.5t26.5 70.5t-26.5 70.5t-73.5 29.5t-73.5 -29.5t-26.5 -70.5zM489 1512q0 -41 26.5 -70.5t73.5 -29.5t73.5 29.5t26.5 70.5t-26.5 70.5t-73.5 29.5t-73.5 -29.5t-26.5 -70.5z" />
<glyph unicode="&#xd0;" horiz-adv-x="1409" d="M88 1195q6 70 108 69h500q278 0 425 -210q125 -176 139 -469q12 -254 -152.5 -424.5t-409.5 -170.5q-55 0 -103.5 8t-80.5 8q-29 0 -71 -8t-116 -8q-78 0 -186 69q39 65 101.5 111.5t131.5 64.5v219l225 -2q0 -23 25 -57q4 -6 4 -10q0 -16 -29 -35l-130 -88h304 q137 0 211 137q61 117 61 295q0 180 -63 317q-82 176 -243 176h-86q-53 0 -54 -84v-113l-225 82v45q0 27 -16 37q-23 14 -39 -2q-6 -6 -4 -37q2 -49 43 -65q162 -65 299 -109q162 -51 153 -166q-4 -55 -30 -90q-31 -41 -78 -41q-84 0 -96 95q51 0 61 45q12 51 -33 71 q-82 31 -352 154q-110 53 -135 73q-65 47 -59 113zM241 604h471v-117h-469zM374 640v293l225 -92v-201h-225z" />
<glyph unicode="&#xd1;" horiz-adv-x="1526" d="M113 1158q4 51 48 78.5t101 27.5h579q293 0 413 -96q113 -86 113 -282q0 -123 -64 -233q-25 -41 -125 -168q-70 -88 -77 -147q-4 -29 9 -55.5t42 -26.5q27 0 67.5 11t65.5 11q72 0 116 -63q39 -55 39 -129q0 -68 -51 -125q0 31 -28 37q-25 0 -52 2q-29 2 -72.5 -14.5 t-70.5 -16.5q-102 0 -173.5 79t-71.5 185q0 110 70.5 309t70.5 313q0 115 -76.5 196.5t-189.5 81.5h-170q-53 0 -53 -83v-209l-225 143v80q0 25 -15 37q-39 33 -61 -4q-6 -8 -6 -35q0 -53 22 -68q243 -153 438 -286q57 -35 115 -72q59 -47 49 -106q-23 -125 -123 -125 q-86 0 -94 94q20 -8 42 5.5t22 35.5q0 27 -35 49q-164 108 -497 330q-106 70 -92 239zM221 61q49 -78 104 -77q27 0 68 8t67 8q27 0 68 -8t67 -8q41 0 72 30q2 2 35 47q-14 45 -49 74q-43 35 -80 47v465l-225 149v-614q-31 -10 -80 -47q-31 -23 -47 -74zM487 1479 q-4 -72 22 -112q63 23 123 32q20 4 39 5q43 0 127 -27q78 -25 133 -21q47 4 83 41t38 86q2 74 -23 113q-57 -23 -123 -33q-20 -4 -41 -4q-41 0 -122.5 25.5t-136.5 21.5q-47 -4 -82 -41t-37 -86z" />
<glyph unicode="&#xd2;" horiz-adv-x="1290" d="M72 591q2 -237 104 -417q117 -201 303 -201q27 0 66.5 14.5t66.5 14.5t66.5 -14.5t66.5 -14.5q196 0 309 201q96 174 98 417q2 268 -143 465q-156 212 -397 212t-397 -212q-145 -196 -143 -465zM276 681q-4 190 82 332q94 162 254 149q121 -10 208 -98q-2 -16 -10 -43 q-41 -133 -219 -205q-196 -80 -258 -278q-4 -12 -10 -45q-45 100 -47 188zM385 379q2 12 10 42q39 129 74 189q53 86 147 122q106 43 155 80q70 51 96 135q4 12 11 43q72 -123 71 -253q0 -176 -77 -316q-96 -172 -260 -159q-141 11 -227 117zM475 1522q0 35 24.5 58.5 t59.5 23.5t65.5 -27.5t30.5 -62.5q0 -23 -15 -43q-4 -6 7.5 -22.5t138.5 -96.5q0 -8 -39 -8q-141 0 -229 84q-43 41 -43 94z" />
<glyph unicode="&#xd3;" horiz-adv-x="1290" d="M72 591q2 -237 104 -417q117 -201 303 -201q27 0 66.5 14.5t66.5 14.5t66.5 -14.5t66.5 -14.5q196 0 309 201q96 174 98 417q2 268 -143 465q-156 212 -397 212t-397 -212q-145 -196 -143 -465zM276 681q-4 190 82 332q94 162 254 149q121 -10 208 -98q-2 -16 -10 -43 q-41 -133 -219 -205q-196 -80 -258 -278q-4 -12 -10 -45q-45 100 -47 188zM385 379q2 12 10 42q39 129 74 189q53 86 147 122q106 43 155 80q70 51 96 135q4 12 11 43q72 -123 71 -253q0 -176 -77 -316q-96 -172 -260 -159q-141 11 -227 117zM516 1352q0 -8 38 -8 q141 0 230 84q41 41 41 92q0 39 -27 61.5t-57 22.5q-35 0 -64.5 -27.5t-29.5 -62.5q0 -20 14 -43q2 -6 -8 -22q-14 -23 -72 -56q-30 -19 -63 -37q-2 -2 -2 -4z" />
<glyph unicode="&#xd4;" horiz-adv-x="1290" d="M72 591q2 -237 104 -417q117 -201 303 -201q27 0 66.5 14.5t66.5 14.5t66.5 -14.5t66.5 -14.5q196 0 309 201q96 174 98 417q2 268 -143 465q-156 212 -397 212t-397 -212q-145 -196 -143 -465zM276 681q-4 190 82 332q94 162 254 149q121 -10 208 -98q-2 -16 -10 -43 q-41 -133 -219 -205q-196 -80 -258 -278q-4 -12 -10 -45q-45 100 -47 188zM385 379q2 12 10 42q39 129 74 189q53 86 147 122q106 43 155 80q70 51 96 135q4 12 11 43q72 -123 71 -253q0 -176 -77 -316q-96 -172 -260 -159q-141 11 -227 117zM397 1318h102l111 141l108 -141 h102l-159 284h-102z" />
<glyph unicode="&#xd5;" horiz-adv-x="1290" d="M72 591q2 -237 104 -417q117 -201 303 -201q27 0 66.5 14.5t66.5 14.5t66.5 -14.5t66.5 -14.5q196 0 309 201q96 174 98 417q2 268 -143 465q-156 212 -397 212t-397 -212q-145 -196 -143 -465zM276 681q-4 190 82 332q94 162 254 149q121 -10 208 -98q-2 -16 -10 -43 q-41 -133 -219 -205q-196 -80 -258 -278q-4 -12 -10 -45q-45 100 -47 188zM364 1479q-4 -72 23 -112q63 23 122 32q20 4 39 5q43 0 127 -27q78 -25 133 -21q47 4 83 41t38 86q2 74 -23 113q-57 -23 -122 -33q-20 -4 -41 -4q-41 0 -123 25.5t-137 21.5q-47 -4 -82 -41 t-37 -86zM385 379q2 12 10 42q39 129 74 189q53 86 147 122q106 43 155 80q70 51 96 135q4 12 11 43q72 -123 71 -253q0 -176 -77 -316q-96 -172 -260 -159q-141 11 -227 117z" />
<glyph unicode="&#xd6;" horiz-adv-x="1288" d="M72 591q2 -237 104 -417q117 -201 303 -201q27 0 66.5 14.5t66.5 14.5t66.5 -14.5t66.5 -14.5q196 0 309 201q96 174 98 417q2 268 -143 465q-156 212 -397 212t-397 -212q-145 -196 -143 -465zM276 681q-4 190 82 332q94 162 254 149q121 -10 208 -98q-2 -16 -10 -43 q-41 -133 -219 -205q-196 -80 -258 -278q-4 -12 -10 -45q-45 100 -47 188zM352 1512q0 -41 26.5 -70.5t73.5 -29.5t73.5 29.5t26.5 70.5t-26.5 70.5t-73.5 29.5t-73.5 -29.5t-26.5 -70.5zM385 379q2 12 10 42q39 129 74 189q53 86 147 122q106 43 155 80q70 51 96 135 q4 12 11 43q72 -123 71 -253q0 -176 -77 -316q-96 -172 -260 -159q-141 11 -227 117zM724 1512q0 -41 26.5 -70.5t74.5 -29.5q47 0 73.5 29.5t26.5 70.5t-26.5 70.5t-73.5 29.5t-74 -29.5t-27 -70.5z" />
<glyph unicode="&#xd8;" horiz-adv-x="1315" d="M72 591q2 -291 141 -472l-33 -119h88q2 12 16 47q88 -74 195 -74q27 0 66.5 14.5t66.5 14.5t66.5 -14.5t66.5 -14.5q196 0 309 203q96 170 98 415q2 164 -61.5 318.5t-173.5 248.5q4 18 22 102h-69l-15 -61q-108 70 -243 69q-241 0 -397 -212q-145 -196 -143 -465z M276 681q-4 190 82 332q94 162 254 149q121 -10 208 -98q-2 -16 -10 -43q-41 -133 -219 -205q-196 -80 -258 -278q-4 -12 -10 -45q-45 100 -47 188zM385 379q2 12 10 42q39 129 74 189q53 86 147 122q106 43 155 80q70 51 96 135q4 12 11 43q72 -123 71 -253 q0 -176 -77 -316q-96 -172 -260 -159q-141 11 -227 117z" />
<glyph unicode="&#xd9;" horiz-adv-x="1360" d="M80 1199q0 65 102 65h377q94 0 106 -61q6 -35 -20.5 -69.5t-53.5 -67.5q-149 -192 -180 -248q-74 -135 -65 -290q6 -127 101 -210t224 -83q110 0 149 51q27 37 27 121q0 51 -64.5 152.5t-146.5 179.5q-49 45 -147 106l-37 22l57 76l19 -10q72 -39 139 -92 q41 -31 170 -170l28 -31v426q-53 8 -100 47q-35 29 -49 74q18 23 37 47q29 31 67 30h313q39 0 68 -30q18 -25 37 -47q-16 -49 -49 -74q-53 -41 -99 -47v-890q41 -12 84 -47t74 -100q-94 -43 -186 -52q-45 -4 -107 9q-72 12 -104 14q-68 2 -162 -10q-106 -12 -167 -13 q-172 0 -285 150q-106 139 -106 325q0 172 90 323q16 25 209 281q41 53 41 69q0 23 -97 23q-72 0 -69 -25q2 -35 45 -67l41 -31l-66 -84l-47 33q-102 72 -135 102q-63 61 -63 123zM536 1522q0 35 24.5 58.5t59.5 23.5t65.5 -27.5t30.5 -62.5q0 -23 -14 -43q-4 -6 7 -22.5 t138 -96.5q0 -8 -39 -8q-141 0 -229 84q-43 41 -43 94z" />
<glyph unicode="&#xda;" horiz-adv-x="1360" d="M80 1199q0 65 102 65h377q94 0 106 -61q6 -35 -20.5 -69.5t-53.5 -67.5q-149 -192 -180 -248q-74 -135 -65 -290q6 -127 101 -210t224 -83q110 0 149 51q27 37 27 121q0 51 -64.5 152.5t-146.5 179.5q-49 45 -147 106l-37 22l57 76l19 -10q72 -39 139 -92 q41 -31 170 -170l28 -31v426q-53 8 -100 47q-35 29 -49 74q18 23 37 47q29 31 67 30h313q39 0 68 -30q18 -25 37 -47q-16 -49 -49 -74q-53 -41 -99 -47v-890q41 -12 84 -47t74 -100q-94 -43 -186 -52q-45 -4 -107 9q-72 12 -104 14q-68 2 -162 -10q-106 -12 -167 -13 q-172 0 -285 150q-106 139 -106 325q0 172 90 323q16 25 209 281q41 53 41 69q0 23 -97 23q-72 0 -69 -25q2 -35 45 -67l41 -31l-66 -84l-47 33q-102 72 -135 102q-63 61 -63 123zM567 1352q0 -8 39 -8q141 0 229 84q41 41 41 92q0 39 -27 61.5t-57 22.5q-35 0 -64.5 -27.5 t-29.5 -62.5q0 -20 14 -43q2 -6 -8 -22q-14 -23 -72 -56q-30 -19 -63 -37q-2 -2 -2 -4z" />
<glyph unicode="&#xdb;" horiz-adv-x="1360" d="M80 1199q0 65 102 65h377q94 0 106 -61q6 -35 -20.5 -69.5t-53.5 -67.5q-149 -192 -180 -248q-74 -135 -65 -290q6 -127 101 -210t224 -83q110 0 149 51q27 37 27 121q0 51 -64.5 152.5t-146.5 179.5q-49 45 -147 106l-37 22l57 76l19 -10q72 -39 139 -92 q41 -31 170 -170l28 -31v426q-53 8 -100 47q-35 29 -49 74q18 23 37 47q29 31 67 30h313q39 0 68 -30q18 -25 37 -47q-16 -49 -49 -74q-53 -41 -99 -47v-890q41 -12 84 -47t74 -100q-94 -43 -186 -52q-45 -4 -107 9q-72 12 -104 14q-68 2 -162 -10q-106 -12 -167 -13 q-172 0 -285 150q-106 139 -106 325q0 172 90 323q16 25 209 281q41 53 41 69q0 23 -97 23q-72 0 -69 -25q2 -35 45 -67l41 -31l-66 -84l-47 33q-102 72 -135 102q-63 61 -63 123zM479 1318h102l111 141l108 -141h102l-159 284h-103z" />
<glyph unicode="&#xdc;" horiz-adv-x="1360" d="M80 1199q0 65 102 65h377q94 0 106 -61q6 -35 -20.5 -69.5t-53.5 -67.5q-149 -192 -180 -248q-74 -135 -65 -290q6 -127 101 -210t224 -83q110 0 149 51q27 37 27 121q0 51 -64.5 152.5t-146.5 179.5q-49 45 -147 106l-37 22l57 76l19 -10q72 -39 139 -92 q41 -31 170 -170l28 -31v426q-53 8 -100 47q-35 29 -49 74q18 23 37 47q29 31 67 30h313q39 0 68 -30q18 -25 37 -47q-16 -49 -49 -74q-53 -41 -99 -47v-890q41 -12 84 -47t74 -100q-94 -43 -186 -52q-45 -4 -107 9q-72 12 -104 14q-68 2 -162 -10q-106 -12 -167 -13 q-172 0 -285 150q-106 139 -106 325q0 172 90 323q16 25 209 281q41 53 41 69q0 23 -97 23q-72 0 -69 -25q2 -35 45 -67l41 -31l-66 -84l-47 33q-102 72 -135 102q-63 61 -63 123zM434 1522q0 -41 26.5 -70.5t73.5 -29.5t73.5 29.5t26.5 70.5t-26.5 70.5t-73.5 29.5 t-73.5 -29.5t-26.5 -70.5zM806 1522q0 -41 26.5 -70.5t73.5 -29.5t74 29.5t27 70.5t-27 70.5t-74 29.5t-73.5 -29.5t-26.5 -70.5z" />
<glyph unicode="&#xdd;" horiz-adv-x="1440" d="M27 1213q-12 51 92 51h534q74 0 79 -69q2 -39 -59 -62q-92 -31 -104 -40q-35 -27 -35 -52q0 -10 4 -18q88 -174 229 -297l47 -41l72 58q192 153 192 286q0 18 -4 35q-10 39 -67 39q-27 0 -66 -8q-102 -25 -245 -62q-72 -18 -86 -18q-16 0 -21 8q-12 25 21.5 42t246.5 97 q74 33 146 68q80 35 153 34q149 0 160 -98q16 -158 -385 -536l-76 -71v-377q45 -6 98 -47q33 -25 50 -74q-49 -78 -105 -77q-31 0 -78 8t-77 8q-31 0 -79 -8t-79 -8q-41 0 -69 30l-35 47q14 45 49 74q47 39 100 47v289l-59 63q-92 100 -186 248q-68 110 -133 218 q-8 12 -25 3q-6 -2 -12 -3q-25 0 -25 23q0 12 15 16q27 8 245 105q29 12 29 20q0 10 -31 12h-182q-45 0 -41 -43q2 -12 16 -22l27 -27l-76 -32l-43 38q-39 31 -77.5 65t-44.5 58zM636 1352q0 -8 39 -8q141 0 229 84q41 41 41 92q0 39 -26.5 61.5t-57.5 22.5 q-35 0 -64.5 -27.5t-29.5 -62.5q0 -20 15 -43q2 -6 -9 -22q-14 -23 -71 -56q-31 -19 -64 -37q-2 -2 -2 -4z" />
<glyph unicode="&#xdf;" horiz-adv-x="1759" d="M84 1166q0 -41 58.5 -137t58.5 -164v-761q-14 -4 -52 -32q-18 -14 -39 -52q8 -12 17.5 -24t48.5 -12q29 0 69.5 8t67.5 8t67.5 -8t67.5 -8q39 0 49 13t17 23q-16 31 -34 46.5t-54 37.5v635q0 65 -92.5 160t-92.5 132q0 23 17.5 41t40.5 18q20 0 103 -27.5t130 -23.5 t83 41t38 86q2 74 -23 113q-61 -18 -123 -23q-45 -2 -112.5 20.5t-101.5 22.5q-82 0 -142 -31q-68 -37 -67 -102zM712 201q2 -88 71.5 -144.5t163.5 -56.5q35 0 102.5 5t112.5 5q41 0 106.5 -5t108.5 -5q100 0 162.5 73t62.5 183q0 252 -225 343q-115 37 -229 76 q-125 43 -125 92q0 37 49 41q137 12 254 0l34 -45q33 -45 101 -49q49 -4 84 8q-10 16 -11 41q0 4 14.5 23.5t14.5 29.5q0 43 -37 66q-18 12 -139 28q-135 20 -231 21q-393 0 -393 -143q0 -82 62 -133q41 -33 145 -72q119 -47 166 -76q63 -39 124 -75q65 -51 66 -119 q0 -96 -170 -102q-68 -2 -119 22q-59 27 -59 80q0 47 -4 61q-8 29 -43 45q-68 33 -106 33q-29 0 -52 -12q37 -33 37 -55q0 -37 -50 -89.5t-48 -94.5z" />
<glyph unicode="&#xe0;" horiz-adv-x="1280" d="M135 256q0 88 102 176q63 53 193 122q102 57 100 68q-86 10 -174 18q-172 29 -172 146q0 90 80 118q43 14 157 15q35 0 81 -8.5t73 -8.5q31 0 79 8.5t78 8.5q110 0 191 -52q90 -57 90 -151v-552l90 -82q-104 -82 -170 -82q-45 0 -116.5 6t-114.5 6q-49 0 -126 -6t-126 -6 q-127 0 -221 70.5t-94 185.5zM395 773q0 -57 127 -57q25 0 86 9t88 9q72 0 71 -53q0 -47 -89 -97t-177 -99q-92 -63 -92 -137q0 -57 49 -89t115 -32q149 0 215 86v409q0 65 -74 82q-25 6 -139 6q-18 0 -58 4t-57 4q-65 0 -65 -45zM464 1174q0 35 25 58.5t59 23.5 q35 0 65.5 -27.5t30.5 -62.5q0 -23 -14 -43q-4 -6 7 -22t138 -96q0 -8 -38 -9q-141 0 -230 84q-43 41 -43 94z" />
<glyph unicode="&#xe1;" horiz-adv-x="1280" d="M135 256q0 88 102 176q63 53 193 122q102 57 100 68q-86 10 -174 18q-172 29 -172 146q0 90 80 118q43 14 157 15q35 0 81 -8.5t73 -8.5q31 0 79 8.5t78 8.5q110 0 191 -52q90 -57 90 -151v-552l90 -82q-104 -82 -170 -82q-45 0 -116.5 6t-114.5 6q-49 0 -126 -6t-126 -6 q-127 0 -221 70.5t-94 185.5zM395 773q0 -57 127 -57q25 0 86 9t88 9q72 0 71 -53q0 -47 -89 -97t-177 -99q-92 -63 -92 -137q0 -57 49 -89t115 -32q149 0 215 86v409q0 65 -74 82q-25 6 -139 6q-18 0 -58 4t-57 4q-65 0 -65 -45zM520 1005q0 -8 39 -9q141 0 229 84 q43 41 43 94q0 35 -24.5 58.5t-59.5 23.5t-65.5 -27.5t-30.5 -62.5q0 -23 14 -43q6 -8 -7 -24t-138 -94z" />
<glyph unicode="&#xe2;" horiz-adv-x="1280" d="M135 256q0 88 102 176q63 53 193 122q102 57 100 68q-86 10 -174 18q-172 29 -172 146q0 90 80 118q43 14 157 15q35 0 81 -8.5t73 -8.5q31 0 79 8.5t78 8.5q110 0 191 -52q90 -57 90 -151v-552l90 -82q-104 -82 -170 -82q-45 0 -116.5 6t-114.5 6q-49 0 -126 -6t-126 -6 q-127 0 -221 70.5t-94 185.5zM395 773q0 -57 127 -57q25 0 86 9t88 9q72 0 71 -53q0 -47 -89 -97t-177 -99q-92 -63 -92 -137q0 -57 49 -89t115 -32q149 0 215 86v409q0 65 -74 82q-25 6 -139 6q-18 0 -58 4t-57 4q-65 0 -65 -45zM407 980h102l111 141l108 -141h103 l-160 284h-102z" />
<glyph unicode="&#xe3;" horiz-adv-x="1280" d="M135 256q0 88 102 176q63 53 193 122q102 57 100 68q-86 10 -174 18q-172 29 -172 146q0 90 80 118q43 14 157 15q35 0 81 -8.5t73 -8.5q31 0 79 8.5t78 8.5q110 0 191 -52q90 -57 90 -151v-552l90 -82q-104 -82 -170 -82q-45 0 -116.5 6t-114.5 6q-49 0 -126 -6t-126 -6 q-127 0 -221 70.5t-94 185.5zM338 1131q-2 -74 22 -112q70 25 123 33q20 4 41 4q41 0 122.5 -25.5t137.5 -21.5q47 4 81.5 40.5t36.5 86.5q4 72 -22 112q-53 -20 -123 -33q-20 -4 -39 -4q-43 0 -124 25.5t-136 21.5q-47 -4 -82.5 -40.5t-37.5 -86.5zM395 773q0 -57 127 -57 q25 0 86 9t88 9q72 0 71 -53q0 -47 -89 -97t-177 -99q-92 -63 -92 -137q0 -57 49 -89t115 -32q149 0 215 86v409q0 65 -74 82q-25 6 -139 6q-18 0 -58 4t-57 4q-65 0 -65 -45z" />
<glyph unicode="&#xe4;" horiz-adv-x="1280" d="M135 256q0 88 102 176q63 53 193 122q102 57 100 68q-86 10 -174 18q-172 29 -172 146q0 90 80 118q43 14 157 15q35 0 81 -8.5t73 -8.5q31 0 79 8.5t78 8.5q110 0 191 -52q90 -57 90 -151v-552l90 -82q-104 -82 -170 -82q-45 0 -116.5 6t-114.5 6q-49 0 -126 -6t-126 -6 q-127 0 -221 70.5t-94 185.5zM321 1154q0 -41 26.5 -70.5t73.5 -29.5t74 29.5t27 70.5t-27 70.5t-74 29.5t-73.5 -29.5t-26.5 -70.5zM395 773q0 -57 127 -57q25 0 86 9t88 9q72 0 71 -53q0 -47 -89 -97t-177 -99q-92 -63 -92 -137q0 -57 49 -89t115 -32q149 0 215 86v409 q0 65 -74 82q-25 6 -139 6q-18 0 -58 4t-57 4q-65 0 -65 -45zM694 1154q0 -41 26.5 -70.5t73.5 -29.5t73.5 29.5t26.5 70.5t-26.5 70.5t-73.5 29.5t-73.5 -29.5t-26.5 -70.5z" />
<glyph unicode="&#xe5;" horiz-adv-x="1280" d="M135 256q0 88 102 176q63 53 193 122q102 57 100 68q-86 10 -174 18q-172 29 -172 146q0 90 80 118q43 14 157 15q35 0 81 -8.5t73 -8.5q31 0 79 8.5t78 8.5q110 0 191 -52q90 -57 90 -151v-552l90 -82q-104 -82 -170 -82q-45 0 -116.5 6t-114.5 6q-49 0 -126 -6t-126 -6 q-127 0 -221 70.5t-94 185.5zM395 773q0 -57 127 -57q25 0 86 9t88 9q72 0 71 -53q0 -47 -89 -97t-177 -99q-92 -63 -92 -137q0 -57 49 -89t115 -32q149 0 215 86v409q0 65 -74 82q-25 6 -139 6q-18 0 -58 4t-57 4q-65 0 -65 -45zM432 1125q0 63 53 99t127 36 q80 0 131 -35.5t51 -99.5q0 -63 -51 -98t-131 -35q-72 0 -123 35q-57 37 -57 98zM501 1127q0 -37 35 -60.5t78 -23.5q113 0 112 84q0 86 -112 86q-47 0 -80 -23.5t-33 -62.5z" />
<glyph unicode="&#xe6;" horiz-adv-x="1910" d="M135 256q0 88 102 176q63 53 193 122q102 57 100 68q-86 10 -174 18q-172 29 -172 146q0 90 80 118q43 14 157 15q35 0 81 -8.5t73 -8.5q31 0 79 8.5t78 8.5q168 0 242 -99q82 113 223 113q25 0 77 -5t85 -5q31 0 79.5 5t81.5 5q74 0 131 -40t57 -105q0 -90 -100 -154.5 t-196 -124.5q-29 -23 -109 -57q-65 -27 -94 -65q-18 -27 -22 -88q86 -57 190 -62q196 -6 245 86q14 29 21 58q61 -23 86 -45q35 -33 37 -95q2 -98 -78 -172.5t-184 -74.5q-59 0 -147.5 -3t-118.5 -3q-172 0 -256 82q-61 -70 -532 -70q-127 0 -221 70.5t-94 185.5zM395 773 q0 -57 127 -57q25 0 86 9t88 9q72 0 71 -53q0 -47 -89 -97t-177 -99q-92 -63 -92 -137q0 -57 49 -89t115 -32q149 0 215 86v409q0 65 -74 82q-25 6 -139 6q-18 0 -58 4t-57 4q-65 0 -65 -45zM1029 544q0 -47 25 -106q21 -47 41 -70q14 49 38 84q43 63 146 113 q117 53 159.5 100t40.5 92q-2 53 -65 70q-37 10 -123 10q-113 0 -187.5 -88t-74.5 -205z" />
<glyph unicode="&#xe7;" horiz-adv-x="1133" d="M102 456q0 -184 64 -307q76 -149 221 -149q37 0 88 5t84 5q35 0 92 -5t94 -5q219 0 213 205q-2 104 -123 141q-10 -27 -27 -47q-33 -41 -86 -51q-23 -4 -106 -5q-139 0 -243.5 87t-104.5 220q0 117 75.5 204t188.5 87q186 0 186 -78q0 -29 -39 -29q-16 0 -50 6.5t-44 6.5 q-47 4 -67.5 -28t-18.5 -77t62 -53q-10 10 -11 31q0 27 45 27q27 0 65 -44t68 -44q221 0 221 235q0 65 -58 105t-132 40q-31 0 -79 -5t-81 -5q-35 0 -86 5t-75 5q-160 0 -254 -155q-82 -139 -82 -328zM491 -282q-2 -31 18.5 -54.5t51.5 -23.5q12 0 32.5 2t32.5 2 q14 0 37.5 -2t38.5 -2q51 0 79.5 45t26.5 102q-2 59 -51 96t-117 37q-23 0 -47 -8q-2 8 -2 18q-2 25 0 54l-49 -2q-2 -27 0 -43q0 -14 6 -29q-4 -2 -14 -10q-25 -23 -25 -49q0 -20 31 -21q47 0 59 39q2 6 3 10h20q25 0 45 -10q51 -27 51 -70q0 -74 -41 -73q-8 0 -21.5 3 t-23.5 3t-22.5 -3t-20.5 -3q-16 0 -20 16q-6 18 10 25q-16 12 -35 12q-49 0 -53 -61zM532 -143q2 -4 10 0t8 18q-6 0 -14 -5t-4 -13z" />
<glyph unicode="&#xe8;" horiz-adv-x="1151" d="M102 456q0 -184 64 -307q76 -149 221 -149q37 0 88 5t84 5q35 0 92 -5t94 -5q104 0 183 73.5t77 172.5q-2 61 -37 94q-23 22 -86 47q-2 -25 -21 -60q-31 -57 -102 -75q-45 -10 -143 -9q-100 2 -188 62q2 35 4 45q4 23 18 41q29 39 94 65q80 35 109 58q98 59 197 123.5 t99 156.5q0 65 -58 105t-132 40q-31 0 -79 -5t-81 -5q-35 0 -86 5t-75 5q-160 0 -254 -155q-82 -139 -82 -328zM268 550q0 117 75.5 204t188.5 87q182 0 186 -78q2 -47 -41 -92t-157 -100q-104 -49 -146 -113q-24 -35 -38 -84q-68 74 -68 176zM444 1174q0 35 24.5 58.5 t59.5 23.5t65.5 -27.5t30.5 -62.5q0 -23 -14 -43q-4 -6 7 -22t138 -96q0 -8 -39 -9q-141 0 -229 84q-43 41 -43 94z" />
<glyph unicode="&#xe9;" horiz-adv-x="1151" d="M102 456q0 -184 64 -307q76 -149 221 -149q37 0 88 5t84 5q35 0 92 -5t94 -5q104 0 183 73.5t77 172.5q-2 61 -37 94q-23 22 -86 47q-2 -25 -21 -60q-31 -57 -102 -75q-45 -10 -143 -9q-100 2 -188 62q2 35 4 45q4 23 18 41q29 39 94 65q80 35 109 58q98 59 197 123.5 t99 156.5q0 65 -58 105t-132 40q-31 0 -79 -5t-81 -5q-35 0 -86 5t-75 5q-160 0 -254 -155q-82 -139 -82 -328zM268 550q0 117 75.5 204t188.5 87q182 0 186 -78q2 -47 -41 -92t-157 -100q-104 -49 -146 -113q-24 -35 -38 -84q-68 74 -68 176zM458 1005q0 -8 39 -9 q141 0 229 84q43 41 43 94q0 35 -24.5 58.5t-59.5 23.5t-65.5 -27.5t-30.5 -62.5q0 -23 15 -43q6 -8 -7.5 -24t-138.5 -94z" />
<glyph unicode="&#xea;" horiz-adv-x="1151" d="M102 456q0 -184 64 -307q76 -149 221 -149q37 0 88 5t84 5q35 0 92 -5t94 -5q104 0 183 73.5t77 172.5q-2 61 -37 94q-23 22 -86 47q-2 -25 -21 -60q-31 -57 -102 -75q-45 -10 -143 -9q-100 2 -188 62q2 35 4 45q4 23 18 41q29 39 94 65q80 35 109 58q98 59 197 123.5 t99 156.5q0 65 -58 105t-132 40q-31 0 -79 -5t-81 -5q-35 0 -86 5t-75 5q-160 0 -254 -155q-82 -139 -82 -328zM268 550q0 117 75.5 204t188.5 87q182 0 186 -78q2 -47 -41 -92t-157 -100q-104 -49 -146 -113q-24 -35 -38 -84q-68 74 -68 176zM407 980h102l111 141l108 -141 h103l-160 284h-102z" />
<glyph unicode="&#xeb;" horiz-adv-x="1151" d="M102 456q0 -184 64 -307q76 -149 221 -149q37 0 88 5t84 5q35 0 92 -5t94 -5q104 0 183 73.5t77 172.5q-2 61 -37 94q-23 22 -86 47q-2 -25 -21 -60q-31 -57 -102 -75q-45 -10 -143 -9q-100 2 -188 62q2 35 4 45q4 23 18 41q29 39 94 65q80 35 109 58q98 59 197 123.5 t99 156.5q0 65 -58 105t-132 40q-31 0 -79 -5t-81 -5q-35 0 -86 5t-75 5q-160 0 -254 -155q-82 -139 -82 -328zM268 550q0 117 75.5 204t188.5 87q182 0 186 -78q2 -47 -41 -92t-157 -100q-104 -49 -146 -113q-24 -35 -38 -84q-68 74 -68 176zM301 1154q0 -41 26.5 -70.5 t73.5 -29.5t73.5 29.5t26.5 70.5t-26.5 70.5t-73.5 29.5t-73.5 -29.5t-26.5 -70.5zM673 1154q0 -41 26.5 -70.5t73.5 -29.5t74 29.5t27 70.5t-27 70.5t-74 29.5t-73.5 -29.5t-26.5 -70.5z" />
<glyph unicode="&#xec;" horiz-adv-x="691" d="M84 872q0 -14 90 -56l27 -12v-700q-14 -4 -52 -32q-18 -14 -39 -52q8 -12 17.5 -24t48.5 -12q29 0 69.5 8t67.5 8t67.5 -8t67.5 -8q39 0 49 13t17 23q-16 31 -34 46.5t-54 37.5v700l24 12q6 4 39 19q25 10 38 18t13 19q0 41 -41 40h-374q-41 0 -41 -40zM188 1174 q0 35 24.5 58.5t59.5 23.5t65.5 -27.5t30.5 -62.5q0 -23 -14 -43q-4 -6 7 -22t138 -96q0 -8 -39 -9q-141 0 -229 84q-43 41 -43 94z" />
<glyph unicode="&#xed;" horiz-adv-x="691" d="M84 872q0 -14 90 -56l27 -12v-700q-14 -4 -52 -32q-18 -14 -39 -52q8 -12 17.5 -24t48.5 -12q29 0 69.5 8t67.5 8t67.5 -8t67.5 -8q39 0 49 13t17 23q-16 31 -34 46.5t-54 37.5v700l24 12q6 4 39 19q25 10 38 18t13 19q0 41 -41 40h-374q-41 0 -41 -40zM172 1005 q0 -8 39 -9q141 0 229 84q43 41 43 94q0 35 -24.5 58.5t-59.5 23.5t-65.5 -27.5t-30.5 -62.5q0 -23 14 -43q6 -8 -7 -24t-138 -94z" />
<glyph unicode="&#xee;" horiz-adv-x="691" d="M84 872q0 -14 90 -56l27 -12v-700q-14 -4 -52 -32q-18 -14 -39 -52q8 -12 17.5 -24t48.5 -12q29 0 69.5 8t67.5 8t67.5 -8t67.5 -8q39 0 49 13t17 23q-16 31 -34 46.5t-54 37.5v700l24 12q6 4 39 19q25 10 38 18t13 19q0 41 -41 40h-374q-41 0 -41 -40zM110 980h103 l110 141l109 -141h102l-160 284h-102z" />
<glyph unicode="&#xef;" horiz-adv-x="691" d="M25 1154q0 -41 26.5 -70.5t73.5 -29.5t73.5 29.5t26.5 70.5t-26.5 70.5t-73.5 29.5t-73.5 -29.5t-26.5 -70.5zM84 872q0 -14 90 -56l27 -12v-700q-14 -4 -52 -32q-18 -14 -39 -52q8 -12 17.5 -24t48.5 -12q29 0 69.5 8t67.5 8t67.5 -8t67.5 -8q39 0 49 13t17 23 q-16 31 -34 46.5t-54 37.5v700l24 12q6 4 39 19q25 10 38 18t13 19q0 41 -41 40h-374q-41 0 -41 -40zM397 1154q0 -41 26.5 -70.5t73.5 -29.5t73.5 29.5t26.5 70.5t-26.5 70.5t-73.5 29.5t-73.5 -29.5t-26.5 -70.5z" />
<glyph unicode="&#xf1;" d="M110 20q8 -12 17.5 -24t48.5 -12q29 0 69.5 8t67.5 8t67.5 -8t67.5 -8q39 0 49 13t17 23q-16 31 -34 46.5t-54 37.5v563q31 33 73.5 45t85.5 22q18 4 39 5q47 0 83 -22.5t36 -61.5v-551q-14 -4 -51 -32q-18 -14 -39 -52q8 -12 17 -24t48 -12q29 0 70 8t67 8q27 0 68 -8 t67 -8q39 0 49.5 13t16.5 23q-16 31 -33.5 46.5t-54.5 37.5v618q0 194 -242 195q-70 0 -127 -41t-112 -82l-61 -39v53q18 14 51 41q2 2 37 43q-6 10 -16.5 23.5t-49.5 13.5q-27 0 -67.5 -8.5t-67.5 -8.5q-29 0 -69.5 8.5t-67.5 8.5q-39 0 -48 -12.5t-18 -24.5q16 -29 39 -45 q12 -14 52 -39v-704q-14 -4 -52 -32q-18 -14 -39 -52zM305 1131q-2 -74 22 -112q70 25 123 33q20 4 39 4q43 0 127 -27q78 -25 133 -20q47 4 82.5 40.5t38.5 86.5q2 74 -23 112q-57 -23 -123 -33q-20 -4 -39 -4q-43 0 -123.5 25.5t-135.5 21.5q-47 -4 -83 -40.5t-38 -86.5z " />
<glyph unicode="&#xf2;" horiz-adv-x="1172" d="M119 417q0 -153 90 -288t200 -135q23 0 79 8t91 8t90 -8t78 -8q110 -2 201 134t91 289q0 219 -129.5 365.5t-330.5 146.5t-330.5 -146.5t-129.5 -365.5zM336 593q0 94 72.5 164t170.5 68q96 -2 163.5 -69t67.5 -163q0 -129 -57 -223q-63 -106 -174 -108q-113 -2 -182 106 q-61 96 -61 225zM434 1174q0 35 24.5 58.5t59.5 23.5t65.5 -27.5t30.5 -62.5q0 -23 -15 -43q-4 -6 7.5 -22t138.5 -96q0 -8 -39 -9q-141 0 -229 84q-43 41 -43 94z" />
<glyph unicode="&#xf3;" horiz-adv-x="1172" d="M119 417q0 -153 90 -288t200 -135q23 0 79 8t91 8t90 -8t78 -8q110 -2 201 134t91 289q0 219 -129.5 365.5t-330.5 146.5t-330.5 -146.5t-129.5 -365.5zM336 593q0 94 72.5 164t170.5 68q96 -2 163.5 -69t67.5 -163q0 -129 -57 -223q-63 -106 -174 -108q-113 -2 -182 106 q-61 96 -61 225zM458 1005q0 -8 39 -9q141 0 229 84q43 41 43 94q0 35 -24.5 58.5t-59.5 23.5t-65.5 -27.5t-30.5 -62.5q0 -23 15 -43q6 -8 -7.5 -24t-138.5 -94z" />
<glyph unicode="&#xf4;" horiz-adv-x="1172" d="M119 417q0 -153 90 -288t200 -135q23 0 79 8t91 8t90 -8t78 -8q110 -2 201 134t91 289q0 219 -129.5 365.5t-330.5 146.5t-330.5 -146.5t-129.5 -365.5zM336 593q0 94 72.5 164t170.5 68q96 -2 163.5 -69t67.5 -163q0 -129 -57 -223q-63 -106 -174 -108q-113 -2 -182 106 q-61 96 -61 225zM387 980h102l110 141l109 -141h102l-159 284h-103z" />
<glyph unicode="&#xf5;" horiz-adv-x="1172" d="M119 417q0 -153 90 -288t200 -135q23 0 79 8t91 8t90 -8t78 -8q110 -2 201 134t91 289q0 219 -129.5 365.5t-330.5 146.5t-330.5 -146.5t-129.5 -365.5zM336 593q0 94 72.5 164t170.5 68q96 -2 163.5 -69t67.5 -163q0 -129 -57 -223q-63 -106 -174 -108q-113 -2 -182 106 q-61 96 -61 225zM338 1131q-2 -74 22 -112q70 25 123 33q20 4 41 4q41 0 122.5 -25.5t137.5 -21.5q47 4 81.5 40.5t36.5 86.5q4 72 -22 112q-53 -20 -123 -33q-20 -4 -39 -4q-43 0 -124 25.5t-136 21.5q-47 -4 -82.5 -40.5t-37.5 -86.5z" />
<glyph unicode="&#xf6;" horiz-adv-x="1172" d="M119 417q0 -153 90 -288t200 -135q23 0 79 8t91 8t90 -8t78 -8q110 -2 201 134t91 289q0 219 -129.5 365.5t-330.5 146.5t-330.5 -146.5t-129.5 -365.5zM301 1154q0 -41 26.5 -70.5t73.5 -29.5t73.5 29.5t26.5 70.5t-26.5 70.5t-73.5 29.5t-73.5 -29.5t-26.5 -70.5z M336 593q0 94 72.5 164t170.5 68q96 -2 163.5 -69t67.5 -163q0 -129 -57 -223q-63 -106 -174 -108q-113 -2 -182 106q-61 96 -61 225zM673 1154q0 -41 26.5 -70.5t73.5 -29.5t74 29.5t27 70.5t-27 70.5t-74 29.5t-73.5 -29.5t-26.5 -70.5z" />
<glyph unicode="&#xf7;" horiz-adv-x="675" d="M92 387q0 30 10 55h401q10 -27 11 -55q0 -33 -11 -54h-401q-10 20 -10 54zM239 180q0 -68 68 -67q68 0 67 67q1 66 -67 66t-68 -66zM239 577q0 -65 68 -66q68 0 67 66q1 67 -67 67t-68 -67z" />
<glyph unicode="&#xf8;" horiz-adv-x="1203" d="M82 0h133q14 18 51 61q84 -68 143 -67q23 0 79 8t91 8t90 -8t78 -8q110 -2 201 134t91 289q0 207 -141 379l105 125h-133l-54 -64q-98 72 -237 72q-201 0 -330.5 -146.5t-129.5 -365.5q0 -145 82 -276zM336 593q0 94 72.5 164t170.5 68q86 0 155 -60l-337 -397 q-61 90 -61 225zM469 293l327 388q14 -72 14 -88q0 -129 -57 -223q-63 -106 -174 -108q-61 0 -110 31z" />
<glyph unicode="&#xf9;" d="M115 867q14 12 28 25q27 20 62 20h145q41 0 70.5 -28.5t29.5 -69.5v-558q0 -39 36 -61.5t83 -22.5q18 0 37 4q43 10 87.5 22t75.5 45v563q-14 6 -53 39q-20 18 -35 45q6 10 16.5 23.5t49.5 13.5q27 0 67.5 -8.5t67.5 -8.5q29 0 69.5 8.5t67.5 8.5q39 0 48 -12.5t17 -24.5 q-20 -37 -37.5 -50t-52.5 -34v-704q2 0 51 -39q23 -16 39 -45q-8 -12 -17 -24t-48 -12q-27 0 -68 8t-69 8q-27 0 -68 -8t-67 -8q-39 0 -49.5 13t-16.5 23q12 16 37 43q14 14 51 41v53l-61 -40q-55 -41 -112.5 -81t-126.5 -40q-241 0 -242 196v600q-45 -2 -73.5 21.5 t-38.5 55.5zM454 1174q0 35 24.5 58.5t59.5 23.5t65.5 -27.5t30.5 -62.5q0 -23 -14 -43q-4 -6 7 -22t138 -96q0 -8 -39 -9q-141 0 -229 84q-43 41 -43 94z" />
<glyph unicode="&#xfa;" d="M115 867q14 12 28 25q27 20 62 20h145q41 0 70.5 -28.5t29.5 -69.5v-558q0 -39 36 -61.5t83 -22.5q18 0 37 4q43 10 87.5 22t75.5 45v563q-14 6 -53 39q-20 18 -35 45q6 10 16.5 23.5t49.5 13.5q27 0 67.5 -8.5t67.5 -8.5q29 0 69.5 8.5t67.5 8.5q39 0 48 -12.5t17 -24.5 q-20 -37 -37.5 -50t-52.5 -34v-704q2 0 51 -39q23 -16 39 -45q-8 -12 -17 -24t-48 -12q-27 0 -68 8t-69 8q-27 0 -68 -8t-67 -8q-39 0 -49.5 13t-16.5 23q12 16 37 43q14 14 51 41v53l-61 -40q-55 -41 -112.5 -81t-126.5 -40q-241 0 -242 196v600q-45 -2 -73.5 21.5 t-38.5 55.5zM448 1005q0 -8 39 -9q141 0 229 84q43 41 43 94q0 35 -24.5 58.5t-59.5 23.5t-65.5 -27.5t-30.5 -62.5q0 -23 14 -43q6 -8 -7 -24t-138 -94z" />
<glyph unicode="&#xfb;" d="M115 867q14 12 28 25q27 20 62 20h145q41 0 70.5 -28.5t29.5 -69.5v-558q0 -39 36 -61.5t83 -22.5q18 0 37 4q43 10 87.5 22t75.5 45v563q-14 6 -53 39q-20 18 -35 45q6 10 16.5 23.5t49.5 13.5q27 0 67.5 -8.5t67.5 -8.5q29 0 69.5 8.5t67.5 8.5q39 0 48 -12.5t17 -24.5 q-20 -37 -37.5 -50t-52.5 -34v-704q2 0 51 -39q23 -16 39 -45q-8 -12 -17 -24t-48 -12q-27 0 -68 8t-69 8q-27 0 -68 -8t-67 -8q-39 0 -49.5 13t-16.5 23q12 16 37 43q14 14 51 41v53l-61 -40q-55 -41 -112.5 -81t-126.5 -40q-241 0 -242 196v600q-45 -2 -73.5 21.5 t-38.5 55.5zM387 980h102l110 141l109 -141h102l-159 284h-103z" />
<glyph unicode="&#xfc;" d="M115 867q14 12 28 25q27 20 62 20h145q41 0 70.5 -28.5t29.5 -69.5v-558q0 -39 36 -61.5t83 -22.5q18 0 37 4q43 10 87.5 22t75.5 45v563q-14 6 -53 39q-20 18 -35 45q6 10 16.5 23.5t49.5 13.5q27 0 67.5 -8.5t67.5 -8.5q29 0 69.5 8.5t67.5 8.5q39 0 48 -12.5t17 -24.5 q-20 -37 -37.5 -50t-52.5 -34v-704q2 0 51 -39q23 -16 39 -45q-8 -12 -17 -24t-48 -12q-27 0 -68 8t-69 8q-27 0 -68 -8t-67 -8q-39 0 -49.5 13t-16.5 23q12 16 37 43q14 14 51 41v53l-61 -40q-55 -41 -112.5 -81t-126.5 -40q-241 0 -242 196v600q-45 -2 -73.5 21.5 t-38.5 55.5zM321 1154q0 -41 26.5 -70.5t73.5 -29.5t74 29.5t27 70.5t-27 70.5t-74 29.5t-73.5 -29.5t-26.5 -70.5zM694 1154q0 -41 26.5 -70.5t73.5 -29.5t73.5 29.5t26.5 70.5t-26.5 70.5t-73.5 29.5t-73.5 -29.5t-26.5 -70.5z" />
<glyph unicode="&#xfd;" horiz-adv-x="1209" d="M98 872q-4 -18 12.5 -32.5t32.5 -29.5q20 -6 51 -35l350 -620v-237q-49 2 -82.5 -29.5t-33.5 -80.5q27 12 63 12q41 0 85 -58.5t81 -58.5q45 0 78.5 27t33.5 67v363q25 20 70 73q86 117 149 246q23 47 117 255q31 70 31 95q0 23 -15 43q-39 51 -108 36q-119 -37 -311 -77 q-18 -2 -20.5 39.5t-18.5 41.5h-534q-27 0 -31 -40zM466 765q-31 65 5 66h22q10 0 19.5 -38t17.5 -38q31 0 135 8q139 12 194 17q72 4 88 -15q8 -10 8 -28l-28 -111q-27 -98 -107 -215q-74 -108 -98 -106q-25 2 -82 112q-96 186 -174 348zM507 1150q0 -8 39 -8q141 0 229 84 q41 41 41 92q0 39 -26.5 61t-57.5 22q-35 0 -64.5 -27.5t-29.5 -62.5q0 -20 15 -43q2 -6 -9 -22q-14 -23 -71 -55q-31 -19 -64 -37q-2 -2 -2 -4z" />
<glyph unicode="&#xff;" horiz-adv-x="1209" d="M98 872q-4 -18 12.5 -32.5t32.5 -29.5q20 -6 51 -35l350 -620v-237q-49 2 -82.5 -29.5t-33.5 -80.5q27 12 63 12q41 0 85 -58.5t81 -58.5q45 0 78.5 27t33.5 67v363q25 20 70 73q86 117 149 246q23 47 117 255q31 70 31 95q0 23 -15 43q-39 51 -108 36q-119 -37 -311 -77 q-18 -2 -20.5 39.5t-18.5 41.5h-534q-27 0 -31 -40zM362 1154q0 -41 26.5 -70.5t73.5 -29.5t74 29.5t27 70.5t-27 70.5t-74 29.5t-73.5 -29.5t-26.5 -70.5zM466 765q-31 65 5 66h22q10 0 19.5 -38t17.5 -38q31 0 135 8q139 12 194 17q72 4 88 -15q8 -10 8 -28l-28 -111 q-27 -98 -107 -215q-74 -108 -98 -106q-25 2 -82 112q-96 186 -174 348zM734 1154q0 -41 27 -70.5t74 -29.5t73.5 29.5t26.5 70.5t-26.5 70.5t-73.5 29.5t-74 -29.5t-27 -70.5z" />
<glyph unicode="&#x152;" horiz-adv-x="1949" d="M72 591q2 -237 104 -417q117 -201 303 -201q27 0 66.5 14.5t66.5 14.5t66.5 -14.5t66.5 -14.5q90 0 145 33q25 -10 51 -22q10 -2 88 -2q68 0 140.5 13t119.5 13q51 0 131 -12t133 -12q123 0 209 47q102 55 100 153q-2 90 -94 141q6 -31 -12.5 -62.5t-51.5 -31.5 q-385 0 -384 0q-51 -2 -89 26.5t-38 82.5v274l-17 22q-29 39 -28 92q0 59 35 109l10 14v162q0 121 82 135q51 8 118 4q80 -4 92 -4q39 2 39 -35q0 -41 -39 -70q-72 -49 -219 -153q-104 -78 -98 -162q4 -59 39 -102t88 -43q63 0 146 40t130 40q14 0 28.5 -2t37.5 -17 q10 -14 8 -30q20 37 20 71q2 143 -182 146q-27 0 -65.5 -15.5t-54.5 -15.5q-18 0 -25 16q-2 4 -2 9q0 14 35 34q102 55 339 193q96 55 90 112q-4 37 -75 66q-63 27 -139 30q-280 16 -342 17q-129 0 -272 -19q-47 -6 -86 -24q-6 0 -41 -29q-131 63 -233 63q-241 0 -397 -212 q-145 -196 -143 -465zM276 681q-4 190 82 332q94 162 254 149q121 -10 208 -98q-2 -16 -10 -43q-41 -133 -219 -205q-196 -80 -258 -278q-4 -12 -10 -45q-45 100 -47 188zM385 379q2 12 10 42q39 129 74 189q53 86 147 122q106 43 155 80q70 51 96 135q4 12 11 43 q72 -123 71 -253q0 -176 -77 -316q-96 -172 -260 -159q-141 11 -227 117z" />
<glyph unicode="&#x153;" horiz-adv-x="1910" d="M119 417q0 -153 90 -288t200 -135q23 0 79 8t91 8t90 -8t78 -8q106 0 190 119q74 -125 209 -125q37 0 88 5t84 5q35 0 92 -5t94 -5q106 0 185 73.5t77 171.5q-2 61 -37 96q-23 20 -86 45q-4 -31 -21 -59q-33 -59 -108 -78q-43 -10 -137 -6q-108 4 -190 62q2 35 4 45 q4 23 18 41q29 39 94 67q80 33 109 55q98 59 197 123.5t99 155.5q0 65 -57 106t-131 41q-33 0 -82 -5t-79 -5q-33 0 -85.5 5t-76.5 5q-76 0 -154 -53q-70 -47 -110 -119q-61 78 -158.5 126t-195.5 48q-201 0 -330.5 -146.5t-129.5 -365.5zM336 593q0 94 72.5 164t170.5 68 q96 -2 163.5 -69t67.5 -163q0 -129 -57 -223q-63 -106 -174 -108q-113 -2 -182 106q-61 96 -61 225zM1029 538q0 117 74.5 204t187.5 87q86 0 123 -11q63 -16 65 -69q2 -45 -42 -92t-158 -101q-102 -49 -146 -110q-24 -35 -38 -86q-65 78 -66 178z" />
<glyph unicode="&#x178;" horiz-adv-x="1411" d="M27 1213q-12 51 92 51h534q74 0 79 -69q2 -39 -59 -62q-92 -31 -104 -40q-35 -27 -35 -52q0 -10 4 -18q88 -174 229 -297l47 -41l72 58q192 153 192 286q0 18 -4 35q-10 39 -67 39q-27 0 -66 -8q-102 -25 -245 -62q-72 -18 -86 -18q-16 0 -21 8q-12 25 21.5 42t246.5 97 q74 33 146 68q80 35 153 34q149 0 160 -98q16 -158 -385 -536l-76 -71v-377q45 -6 98 -47q33 -25 50 -74q-49 -78 -105 -77q-31 0 -78 8t-77 8q-31 0 -79 -8t-79 -8q-41 0 -69 30l-35 47q14 45 49 74q47 39 100 47v289l-59 63q-92 100 -186 248q-68 110 -133 218 q-8 12 -25 3q-6 -2 -12 -3q-25 0 -25 23q0 12 15 16q27 8 245 105q29 12 29 20q0 10 -31 12h-182q-45 0 -41 -43q2 -12 16 -22l27 -27l-76 -32l-43 38q-39 31 -77.5 65t-44.5 58zM536 1512q0 -41 26.5 -70.5t73.5 -29.5t74 29.5t27 70.5t-27 70.5t-74 29.5t-73.5 -29.5 t-26.5 -70.5zM908 1512q0 -41 27 -70.5t74 -29.5t73.5 29.5t26.5 70.5t-26.5 70.5t-73.5 29.5t-74 -29.5t-27 -70.5z" />
<glyph unicode="&#x2dc;" horiz-adv-x="828" d="M88 528q-4 -72 22 -113q63 23 123 33q20 4 39 4q43 0 127 -26q78 -25 133 -21q47 4 83 41t38 86q2 74 -23 112q-57 -23 -123 -32q-20 -4 -41 -4q-41 0 -122.5 25.5t-136.5 21.5q-47 -4 -82 -41t-37 -86z" />
<glyph unicode="&#x2000;" horiz-adv-x="811" />
<glyph unicode="&#x2001;" horiz-adv-x="1622" />
<glyph unicode="&#x2002;" horiz-adv-x="811" />
<glyph unicode="&#x2003;" horiz-adv-x="1622" />
<glyph unicode="&#x2004;" horiz-adv-x="540" />
<glyph unicode="&#x2005;" horiz-adv-x="405" />
<glyph unicode="&#x2006;" horiz-adv-x="270" />
<glyph unicode="&#x2007;" horiz-adv-x="270" />
<glyph unicode="&#x2008;" horiz-adv-x="202" />
<glyph unicode="&#x2009;" horiz-adv-x="324" />
<glyph unicode="&#x200a;" horiz-adv-x="90" />
<glyph unicode="&#x2010;" horiz-adv-x="621" d="M92 387q0 30 10 55h401q10 -27 11 -55q0 -33 -11 -54h-401q-10 20 -10 54z" />
<glyph unicode="&#x2011;" horiz-adv-x="621" d="M92 387q0 30 10 55h401q10 -27 11 -55q0 -33 -11 -54h-401q-10 20 -10 54z" />
<glyph unicode="&#x2012;" horiz-adv-x="621" d="M92 387q0 30 10 55h401q10 -27 11 -55q0 -33 -11 -54h-401q-10 20 -10 54z" />
<glyph unicode="&#x2013;" d="M115 483q0 34 14 69h880q12 -29 12 -69q0 -39 -12 -72h-880q-14 37 -14 72z" />
<glyph unicode="&#x2014;" horiz-adv-x="1759" d="M115 483q0 34 14 69h1428q14 -35 14 -69q0 -35 -14 -72h-1428q-14 37 -14 72z" />
<glyph unicode="&#x2018;" horiz-adv-x="466" d="M131 1125q0 47 27.5 86t68.5 35q82 -8 82 -92q0 -70 -61 -84q-8 -4 -13 -20q-6 -27 21 -68q16 -22 30 -45q0 -6 -4 -6q-25 0 -86 65q-65 74 -65 129z" />
<glyph unicode="&#x2019;" horiz-adv-x="609" d="M29 919q0 -57 49 -68q10 -2 10 -16q6 -20 -6 -37l-35 -53q0 -4 4 -4q18 0 69.5 55t51.5 100q0 39 -22.5 69.5t-55.5 26.5q-65 -8 -65 -73z" />
<glyph unicode="&#x201c;" horiz-adv-x="574" d="M131 1125q0 47 27.5 86t68.5 35q82 -8 82 -92q0 -70 -61 -84q-8 -4 -13 -20q-6 -27 21 -68q16 -22 30 -45q0 -6 -4 -6q-25 0 -86 65q-65 74 -65 129zM336 1125q0 47 27.5 86t68.5 35q82 -8 82 -92q0 -70 -62 -84q-8 -4 -12 -20q-6 -27 20 -68q17 -22 31 -45q0 -6 -4 -6 q-25 0 -86 65q-65 74 -65 129z" />
<glyph unicode="&#x201d;" horiz-adv-x="830" d="M37 1148q0 -72 61 -84q8 -2 12 -21q6 -27 -20 -65l-31 -47q0 -6 4 -6q25 0 84 67q68 72 68 129q0 47 -27.5 85t-68.5 34q-82 -8 -82 -92zM241 1148q0 -72 62 -84q8 -2 12 -21q6 -27 -20 -65l-31 -47q0 -6 4 -6q25 0 84 67q68 72 67 129q0 47 -27.5 85t-68.5 34 q-82 -8 -82 -92z" />
<glyph unicode="&#x2022;" horiz-adv-x="797" d="M151 454q0 -78 52 -131q53 -59 145 -57q88 2 139 61q47 53 47 129q0 78 -52 134t-144 54q-88 -2 -137.5 -58t-49.5 -132z" />
<glyph unicode="&#x2026;" horiz-adv-x="1636" d="M0 92q0 -41 26.5 -70.5t73.5 -29.5t74 29.5t27 70.5t-27 70.5t-74 29.5t-73.5 -29.5t-26.5 -70.5zM522 92q0 -41 26.5 -70.5t73.5 -29.5t73.5 29.5t26.5 70.5t-26.5 70.5t-73.5 29.5t-73.5 -29.5t-26.5 -70.5zM1084 92q0 -41 27 -70.5t74 -29.5t73.5 29.5t26.5 70.5 t-26.5 70.5t-73.5 29.5t-74 -29.5t-27 -70.5z" />
<glyph unicode="&#x202f;" horiz-adv-x="324" />
<glyph unicode="&#x205f;" horiz-adv-x="405" />
<glyph unicode="&#x2122;" horiz-adv-x="1176" d="M113 1228q2 39 36 38h281q35 0 36 -38q0 -20 -29.5 -41t-27.5 -35q0 -4 6 -11.5t6 -13.5q6 -20 -10 -30h-10q6 6 4 8q0 6 -8 6q-18 2 -27 25q0 16 16.5 38.5t14.5 28.5q-4 14 -20 14h-43q-14 0 -15 -34v-240q12 -6 31 -12q4 -6 12 -23q-6 -23 -30 -22q-10 0 -24.5 2 t-23.5 2q-8 0 -21 -2t-24 -2q-25 0 -30 22q4 8 12 23q10 6 31 12v240q0 35 -15 34h-45q-14 0 -20 -14q0 -6 15.5 -28.5t15.5 -38.5q-4 -23 -25 -25q-8 0 -8 -6q-2 -2 2 -8h-10q-14 8 -11 30q0 6 6.5 13.5t8.5 11.5q2 14 -27.5 34.5t-29.5 41.5zM511 1230q-8 -29 54 -54 l10 -4l14 25l-10 6q-8 2 -8 14q-2 8 18 9q14 0 15 -9q-8 -14 -23 -45q-57 -117 -57 -202q0 -84 20 -84q8 0 20.5 2t18.5 2q8 0 19.5 -2t19.5 -2q16 0 22 22q-6 6 -15 12.5t-30 22.5q-23 35 -24 76q-2 80 59 174q23 33 43 33q31 0 31 -31v-37h67v35q0 29 31 33q29 2 43 -27 q27 -51 39 -184q6 -65 -16 -82q-8 -6 -25 -16l-16 -9q16 -23 36 -22q6 0 17.5 2t17.5 2q8 0 20.5 -2t18.5 -2q20 0 23 35q6 88 -17 202q-2 8 -14 49q-10 25 -6 41q0 12 14 13q8 0 17 -13q6 -16 -17 -24l-10 -4l8 -23l10 2q25 10 48.5 29.5t21.5 34.5q-10 39 -49 38h-426 q-29 0 -33 -36zM614 1152h6q59 -25 123 -25q92 0 122 9h5l-9 26h-2q-45 -10 -116 -10q-55 0 -111 24h-6zM665 908q16 -23 29 -22q10 0 24 2t25 2q8 0 21 -2t24 -2q12 0 28 22q-8 12 -14 17.5t-27 17.5v180h-67v-180q-12 -6 -24.5 -16t-18.5 -19z" />
<glyph unicode="&#xe000;" horiz-adv-x="910" d="M0 0v910h910v-910h-910z" />
</font>
</defs>
</svg>
